<svg xmlns="http://www.w3.org/2000/svg" xmlns:xlink="http://www.w3.org/1999/xlink" viewBox="0 0 570.37 1446.56"><defs><style>.cls-1{font-size:30px;font-family:Helvetica-Condensed-Bold,Helvetica Condensed;font-weight:700;letter-spacing:-.04em}.cls-1,.cls-13{fill:#fff}.cls-12{fill:none;stroke-miterlimit:10}.cls-3{fill:#f3b12d}.cls-12{stroke:#f3b12d}.cls-13{font-size:21.88px;font-family:ArialMT-Light,Arial}.cls-14{letter-spacing:-.01em}.cls-15{letter-spacing:-.02em}.cls-19{letter-spacing:.12em}.cls-21{letter-spacing:0}.cls-23{letter-spacing:-.02em}.cls-24{letter-spacing:.04em}.cls-25{letter-spacing:-.05em}.cls-27{letter-spacing:-.04em}.cls-31{letter-spacing:-.02em}</style><radialGradient id="未命名的渐变_54" cx="501.78" cy="6327.91" r="31.21" gradientTransform="rotate(90 3487.745 3128.365)" gradientUnits="userSpaceOnUse"><stop offset="0" stop-color="#00c3ff"/><stop offset="1" stop-color="#00c3ff" stop-opacity="0"/></radialGradient><radialGradient id="未命名的渐变_54-2" cx="667.75" cy="6327.91" r="31.21" xlink:href="#未命名的渐变_54"/><radialGradient id="未命名的渐变_54-3" cx="833.71" cy="6327.91" r="31.21" xlink:href="#未命名的渐变_54"/><radialGradient id="未命名的渐变_54-4" cx="999.68" cy="6327.91" r="31.21" xlink:href="#未命名的渐变_54"/><radialGradient id="未命名的渐变_54-5" cx="1165.64" cy="6327.91" r="31.21" xlink:href="#未命名的渐变_54"/><radialGradient id="未命名的渐变_54-6" cx="1331.61" cy="6327.91" r="31.21" xlink:href="#未命名的渐变_54"/><radialGradient id="未命名的渐变_54-7" cx="1498.31" cy="6327.91" r="31.21" xlink:href="#未命名的渐变_54"/><radialGradient id="未命名的渐变_54-8" cx="1664.25" cy="6327.91" r="31.21" xlink:href="#未命名的渐变_54"/></defs><g id="图层_2" data-name="图层 2"><g id="图层_1-2" data-name="图层 1"><text class="cls-1" transform="translate(337.41 125.49)" id="_编组_" data-name="&lt;编组&gt;">2016.8<tspan x="34.5" y="24.28">-</tspan><tspan x="0" y="51.65">2017.8</tspan></text><text class="cls-1" transform="translate(157.02 317.29)" id="_编组_2" data-name="&lt;编组&gt;">2017.9</text><path id="_路径_" data-name="&lt;路径&gt;" stroke="#dc9a2d" fill="none" stroke-miterlimit="10" d="M288.2 0v1446.56"/><g id="_编组_3" data-name="&lt;编组&gt;"><path id="_复合路径_" data-name="&lt;复合路径&gt;" class="cls-3" d="M257 142.4a31.21 31.21 0 1 1 31.2 31.21A31.23 31.23 0 0 1 257 142.4zm59.74 0a28.54 28.54 0 1 0-28.54 28.54 28.57 28.57 0 0 0 28.54-28.54z"/></g><g id="_编组_4" data-name="&lt;编组&gt;"><path id="_复合路径_2" data-name="&lt;复合路径&gt;" d="M257 142.4a31.21 31.21 0 1 1 31.2 31.21A31.23 31.23 0 0 1 257 142.4z" fill="url(#未命名的渐变_54)"/></g><g id="_编组_5" data-name="&lt;编组&gt;"><path id="_复合路径_3" data-name="&lt;复合路径&gt;" d="M257 308.37a31.21 31.21 0 1 1 31.2 31.2 31.24 31.24 0 0 1-31.2-31.2z" fill="url(#未命名的渐变_54-2)"/></g><g id="_编组_6" data-name="&lt;编组&gt;"><path id="_复合路径_4" data-name="&lt;复合路径&gt;" d="M257 474.33a31.21 31.21 0 1 1 31.2 31.21 31.23 31.23 0 0 1-31.2-31.21z" fill="url(#未命名的渐变_54-3)"/></g><g id="_编组_7" data-name="&lt;编组&gt;"><path id="_复合路径_5" data-name="&lt;复合路径&gt;" d="M257 640.3a31.21 31.21 0 1 1 31.2 31.2 31.24 31.24 0 0 1-31.2-31.2z" fill="url(#未命名的渐变_54-4)"/></g><g id="_编组_8" data-name="&lt;编组&gt;"><path id="_复合路径_6" data-name="&lt;复合路径&gt;" d="M257 806.26a31.21 31.21 0 1 1 31.2 31.21 31.23 31.23 0 0 1-31.2-31.21z" fill="url(#未命名的渐变_54-5)"/></g><g id="_编组_9" data-name="&lt;编组&gt;"><path id="_复合路径_7" data-name="&lt;复合路径&gt;" d="M257 972.23a31.21 31.21 0 1 1 31.2 31.2 31.24 31.24 0 0 1-31.2-31.2z" fill="url(#未命名的渐变_54-6)"/></g><g id="_编组_10" data-name="&lt;编组&gt;"><path id="_复合路径_8" data-name="&lt;复合路径&gt;" d="M257 1138.93a31.21 31.21 0 1 1 31.2 31.2 31.24 31.24 0 0 1-31.2-31.2z" fill="url(#未命名的渐变_54-7)"/></g><g id="_编组_11" data-name="&lt;编组&gt;"><path id="_复合路径_9" data-name="&lt;复合路径&gt;" d="M257 1304.87a31.21 31.21 0 1 1 31.2 31.21 31.23 31.23 0 0 1-31.2-31.21z" fill="url(#未命名的渐变_54-8)"/></g><path id="_路径_2" data-name="&lt;路径&gt;" class="cls-12" d="M244.12 142.4a44.09 44.09 0 0 1 44.08-44.08"/><path id="_路径_3" data-name="&lt;路径&gt;" class="cls-12" d="M332.28 308.37a44.09 44.09 0 0 1-44.08 44.08"/><path id="_路径_4" data-name="&lt;路径&gt;" class="cls-12" d="M332.28 640.3a44.09 44.09 0 0 1-44.08 44.08"/><path id="_路径_5" data-name="&lt;路径&gt;" class="cls-12" d="M332.28 972.23a44.09 44.09 0 0 1-44.08 44.08"/><path id="_路径_6" data-name="&lt;路径&gt;" class="cls-12" d="M332.28 1304.16a44.09 44.09 0 0 1-44.08 44.08"/><path id="_路径_7" data-name="&lt;路径&gt;" class="cls-12" d="M257.02 142.4H109.78"/><circle id="_路径_8" data-name="&lt;路径&gt;" class="cls-3" cx="288.2" cy="142.4" r="14.35"/><circle id="_路径_9" data-name="&lt;路径&gt;" class="cls-3" cx="288.2" cy="1304.16" r="14.35"/><g id="_编组_12" data-name="&lt;编组&gt;"><path id="_复合路径_10" data-name="&lt;复合路径&gt;" class="cls-3" d="M319.41 1304.16A31.21 31.21 0 1 1 288.2 1273a31.24 31.24 0 0 1 31.21 31.16zm-59.75 0a28.54 28.54 0 1 0 28.54-28.54 28.58 28.58 0 0 0-28.54 28.54z"/></g><path id="_路径_10" data-name="&lt;路径&gt;" class="cls-12" d="M319.38 1304.16h147.24"/><circle id="_路径_11" data-name="&lt;路径&gt;" class="cls-3" cx="288.2" cy="474.33" r="14.35"/><g id="_编组_13" data-name="&lt;编组&gt;"><path id="_复合路径_11" data-name="&lt;复合路径&gt;" class="cls-3" d="M257 474.33a31.21 31.21 0 1 1 31.2 31.21 31.23 31.23 0 0 1-31.2-31.21zm59.74 0a28.54 28.54 0 1 0-28.54 28.54 28.57 28.57 0 0 0 28.54-28.54z"/></g><path id="_路径_12" data-name="&lt;路径&gt;" class="cls-12" d="M244.12 474.33a44.08 44.08 0 0 1 44.08-44.07"/><path id="_路径_13" data-name="&lt;路径&gt;" class="cls-12" d="M257.02 474.33H109.78"/><circle id="_路径_14" data-name="&lt;路径&gt;" class="cls-3" cx="288.2" cy="972.23" r="14.35"/><g id="_编组_14" data-name="&lt;编组&gt;"><path id="_复合路径_12" data-name="&lt;复合路径&gt;" class="cls-3" d="M319.41 972.23A31.21 31.21 0 1 1 288.2 941a31.24 31.24 0 0 1 31.21 31.23zm-59.75 0a28.54 28.54 0 1 0 28.54-28.54 28.58 28.58 0 0 0-28.54 28.54z"/></g><path id="_路径_15" data-name="&lt;路径&gt;" class="cls-12" d="M319.38 972.23h147.24"/><circle id="_路径_16" data-name="&lt;路径&gt;" class="cls-3" cx="288.2" cy="806.26" r="14.35"/><g id="_编组_15" data-name="&lt;编组&gt;"><path id="_复合路径_13" data-name="&lt;复合路径&gt;" class="cls-3" d="M257 806.26a31.21 31.21 0 1 1 31.2 31.21 31.23 31.23 0 0 1-31.2-31.21zm59.74 0a28.54 28.54 0 1 0-28.54 28.54 28.57 28.57 0 0 0 28.54-28.54z"/></g><path id="_路径_17" data-name="&lt;路径&gt;" class="cls-12" d="M244.12 806.26a44.08 44.08 0 0 1 44.08-44.07"/><path id="_路径_18" data-name="&lt;路径&gt;" class="cls-12" d="M257.02 806.26H109.78"/><circle id="_路径_19" data-name="&lt;路径&gt;" class="cls-3" cx="288.2" cy="640.3" r="14.35"/><g id="_编组_16" data-name="&lt;编组&gt;"><path id="_复合路径_14" data-name="&lt;复合路径&gt;" class="cls-3" d="M319.41 640.3a31.21 31.21 0 1 1-31.21-31.21 31.24 31.24 0 0 1 31.21 31.21zm-59.75 0a28.54 28.54 0 1 0 28.54-28.54 28.58 28.58 0 0 0-28.54 28.54z"/></g><path id="_路径_20" data-name="&lt;路径&gt;" class="cls-12" d="M319.38 640.3h147.24"/><circle id="_路径_21" data-name="&lt;路径&gt;" class="cls-3" cx="288.2" cy="1138.19" r="14.35"/><g id="_编组_17" data-name="&lt;编组&gt;"><path id="_复合路径_15" data-name="&lt;复合路径&gt;" class="cls-3" d="M257 1138.19a31.21 31.21 0 1 1 31.2 31.21 31.23 31.23 0 0 1-31.2-31.21zm59.74 0a28.54 28.54 0 1 0-28.54 28.54 28.57 28.57 0 0 0 28.54-28.54z"/></g><path id="_路径_22" data-name="&lt;路径&gt;" class="cls-12" d="M244.12 1138.19a44.08 44.08 0 0 1 44.08-44.07"/><path id="_路径_23" data-name="&lt;路径&gt;" class="cls-12" d="M257.02 1138.19H109.78"/><circle id="_路径_24" data-name="&lt;路径&gt;" class="cls-3" cx="288.2" cy="308.37" r="14.35"/><g id="_编组_18" data-name="&lt;编组&gt;"><path id="_复合路径_16" data-name="&lt;复合路径&gt;" class="cls-3" d="M319.41 308.37a31.21 31.21 0 1 1-31.21-31.21 31.24 31.24 0 0 1 31.21 31.21zm-59.75 0a28.54 28.54 0 1 0 28.54-28.54 28.58 28.58 0 0 0-28.54 28.54z"/></g><path id="_路径_25" data-name="&lt;路径&gt;" class="cls-12" d="M319.38 308.37h147.24"/><text class="cls-13" transform="translate(75.73 179.62)" id="_编组_19" data-name="&lt;编组&gt;">Project<tspan x="-22.39" y="28.4">Prepar</tspan><tspan class="cls-14" x="43.26" y="28.4">a</tspan><tspan x="55.21" y="28.4">tion</tspan></text><text class="cls-13" transform="translate(406.64 345.59)" id="_编组_20" data-name="&lt;编组&gt;">D<tspan class="cls-15" x="15.8" y="0">R</tspan><tspan x="29.98" y="0">C Project</tspan><tspan x="25.29" y="28.4">Ki</tspan><tspan x="44.74" y="28.4" letter-spacing="-.02em">c</tspan><tspan x="56.47" y="28.4" letter-spacing="-.03em">k</tspan><tspan x="66.8" y="28.4">o</tspan><tspan x="78.97" y="28.4" letter-spacing=".05em">f</tspan><tspan class="cls-19" x="86.03" y="28.4">f</tspan></text><path id="_路径_26" data-name="&lt;路径&gt;" class="cls-3" d="M109.78 147.12a4.72 4.72 0 1 1 4.72-4.72 4.72 4.72 0 0 1-4.72 4.72z"/><text class="cls-1" transform="translate(337.41 483.2)" id="_编组_21" data-name="&lt;编组&gt;">2017.9-10</text><text class="cls-13" transform="translate(25.75 512.35)" id="_编组_22" data-name="&lt;编组&gt;">D<tspan class="cls-15" x="15.8" y="0">R</tspan><tspan x="29.98" y="0">C Distri</tspan><tspan x="101.69" y="0" letter-spacing="-.01em">b</tspan><tspan class="cls-21" x="114.84" y="0">uted</tspan><tspan x="-25.75" y="28.4">Pro</tspan><tspan class="cls-14" x="7.08" y="28.4">f</tspan><tspan x="12.94" y="28.4">essional Se</tspan><tspan x="124.83" y="28.4" letter-spacing=".05em">r</tspan><tspan x="133.3" y="28.4">vices</tspan><tspan x="1.42" y="56.81">Pl</tspan><tspan class="cls-14" x="19.65" y="56.81">a</tspan><tspan x="31.6" y="56.81">t</tspan><tspan class="cls-23" x="37.68" y="56.81">f</tspan><tspan class="cls-21" x="43.35" y="56.81">o</tspan><tspan class="cls-24" x="55.52" y="56.81">r</tspan><tspan class="cls-21" x="63.59" y="56.81">m Design</tspan></text><path id="_路径_27" data-name="&lt;路径&gt;" class="cls-3" d="M109.78 479.05a4.72 4.72 0 1 1 4.72-4.72 4.72 4.72 0 0 1-4.72 4.72z"/><text class="cls-1" transform="translate(337.41 815.19)" id="_编组_23" data-name="&lt;编组&gt;">2018.1-3</text><text class="cls-13" transform="translate(6.03 837.47)" id="_编组_24" data-name="&lt;编组&gt;">D<tspan class="cls-15" x="15.8" y="0">R</tspan><tspan x="29.98" y="0">C </tspan><tspan class="cls-25" x="51.86" y="0">D</tspan><tspan class="cls-14" x="66.66" y="0">A</tspan><tspan x="81.03" y="0">pp Prototype</tspan><tspan x="11.35" y="28.4">V2.0 D</tspan><tspan x="77.02" y="28.4" letter-spacing="-.02em">e</tspan><tspan class="cls-27" x="88.73" y="28.4">v</tspan><tspan x="98.86" y="28.4">elopment</tspan></text><path id="_路径_28" data-name="&lt;路径&gt;" class="cls-3" d="M109.78 811a4.72 4.72 0 1 1 4.72-4.72 4.72 4.72 0 0 1-4.72 4.72z"/><text class="cls-1" transform="translate(337.41 1147.12)" id="_编组_25" data-name="&lt;编组&gt;">2018.7-9</text><text class="cls-13" transform="translate(43.65 1179.42)" id="_编组_26" data-name="&lt;编组&gt;">D<tspan class="cls-15" x="15.8" y="0">R</tspan><tspan x="29.98" y="0">C Pl</tspan><tspan class="cls-14" x="70.09" y="0">a</tspan><tspan x="82.04" y="0">t</tspan><tspan class="cls-23" x="88.12" y="0">f</tspan><tspan class="cls-21" x="93.79" y="0">o</tspan><tspan class="cls-24" x="105.96" y="0">r</tspan><tspan class="cls-21" x="114.03" y="0">m</tspan><tspan x="-6.63" y="28.4" letter-spacing="-.05em">F</tspan><tspan x="4.53" y="28.4">o</tspan><tspan x="16.7" y="28.4" letter-spacing=".04em">r</tspan><tspan x="24.77" y="28.4">mal Laun</tspan><tspan x="114.78" y="28.4" letter-spacing="-.01em">c</tspan><tspan x="126.73" y="28.4">h</tspan></text><path id="_路径_29" data-name="&lt;路径&gt;" class="cls-3" d="M109.78 1142.91a4.72 4.72 0 1 1 4.72-4.72 4.72 4.72 0 0 1-4.72 4.72z"/><path id="_路径_30" data-name="&lt;路径&gt;" class="cls-3" d="M466.62 313.09a4.72 4.72 0 1 1 4.72-4.72 4.72 4.72 0 0 1-4.72 4.72z"/><text class="cls-1" transform="translate(106.83 649.22)" id="_编组_27" data-name="&lt;编组&gt;">2017.10-12</text><text class="cls-13" transform="translate(362.87 681.04)" id="_编组_28" data-name="&lt;编组&gt;">D<tspan class="cls-15" x="15.8" y="0">R</tspan><tspan x="29.98" y="0">C </tspan><tspan class="cls-25" x="51.86" y="0">D</tspan><tspan class="cls-14" x="66.66" y="0">A</tspan><tspan x="81.03" y="0">pp Prototype</tspan><tspan x="14.39" y="28.4">V1.0 D</tspan><tspan class="cls-31" x="80.06" y="28.4">e</tspan><tspan class="cls-27" x="91.77" y="28.4">v</tspan><tspan x="101.9" y="28.4">elopment</tspan></text><path id="_路径_31" data-name="&lt;路径&gt;" class="cls-3" d="M466.62 645a4.72 4.72 0 1 1 4.72-4.72 4.72 4.72 0 0 1-4.72 4.72z"/><text class="cls-1" transform="translate(134.4 981.17)" id="_编组_29" data-name="&lt;编组&gt;">2018.4-6</text><text class="cls-13" transform="translate(400.49 1010.45)" id="_编组_30" data-name="&lt;编组&gt;">D<tspan class="cls-15" x="15.8" y="0">R</tspan><tspan x="29.98" y="0">C Pl</tspan><tspan class="cls-14" x="70.09" y="0">a</tspan><tspan x="82.04" y="0">t</tspan><tspan class="cls-23" x="88.12" y="0">f</tspan><tspan class="cls-21" x="93.79" y="0">o</tspan><tspan class="cls-24" x="105.96" y="0">r</tspan><tspan class="cls-21" x="114.03" y="0">m</tspan><tspan x="7.77" y="28.4">System </tspan><tspan x="85.59" y="28.4" letter-spacing="-.11em">T</tspan><tspan class="cls-21" x="95.3" y="28.4">est</tspan></text><path id="_路径_32" data-name="&lt;路径&gt;" class="cls-3" d="M466.62 977a4.72 4.72 0 1 1 4.72-4.72 4.72 4.72 0 0 1-4.72 4.72z"/><text class="cls-1" transform="translate(157.02 1288.79)" id="_编组_31" data-name="&lt;编组&gt;">2018.9<tspan x="34.5" y="24.28">-</tspan><tspan x="0" y="48.55">2019.3</tspan></text><text class="cls-13" transform="translate(382.11 1348.24)" id="_编组_32" data-name="&lt;编组&gt;">Global Promotion<tspan x="-1.81" y="28.4">and D</tspan><tspan class="cls-31" x="57.78" y="28.4">e</tspan><tspan class="cls-27" x="69.49" y="28.4">v</tspan><tspan class="cls-21" x="79.62" y="28.4">elopment</tspan><tspan x="-17.5" y="56.81">o</tspan><tspan class="cls-19" x="-5.33" y="56.81">f</tspan><tspan x="3.32" y="56.81"> other </tspan><tspan class="cls-14" x="65.35" y="56.81">A</tspan><tspan x="79.73" y="56.81" letter-spacing="0">pplic</tspan><tspan class="cls-14" x="128.36" y="56.81">a</tspan><tspan x="140.31" y="56.81">tions</tspan></text><path id="_路径_33" data-name="&lt;路径&gt;" class="cls-3" d="M466.62 1308.88a4.72 4.72 0 1 1 4.72-4.72 4.72 4.72 0 0 1-4.72 4.72z"/></g></g></svg>