<svg xmlns="http://www.w3.org/2000/svg" xmlns:xlink="http://www.w3.org/1999/xlink" viewBox="0 0 1048.33 643.98"><defs><style>.cls-1,.cls-10,.cls-12,.cls-13{fill-rule:evenodd;}.cls-1{opacity:0.55;fill:url(#未命名的渐变_861);}.cls-2,.cls-4,.cls-6{opacity:0.5;}.cls-2{fill:url(#未命名的渐变_862);}.cls-3{fill:url(#未命名的渐变_861-2);}.cls-4{fill:url(#未命名的渐变_862-2);}.cls-5{fill:url(#未命名的渐变_861-3);}.cls-6{fill:url(#未命名的渐变_862-3);}.cls-7{font-size:11px;}.cls-7,.cls-9{fill:#fff;}.cls-27,.cls-28,.cls-7{font-family:ArialMT, Arial;}.cls-8{letter-spacing:-0.06em;}.cls-9{font-size:11.99px;font-family:Arial-BoldMT, Arial;font-weight:700;}.cls-10,.cls-11,.cls-12,.cls-13,.cls-15,.cls-16{fill:none;stroke-linecap:round;stroke-linejoin:round;}.cls-10,.cls-11,.cls-12,.cls-15,.cls-16{stroke:#f2b02d;}.cls-10,.cls-11{stroke-width:0.97px;}.cls-12,.cls-13{stroke-width:1.27px;}.cls-13{stroke:url(#未命名的渐变_862-4);}.cls-14{fill:#f2b02d;}.cls-15{stroke-width:1.13px;}.cls-17{opacity:0.19;}.cls-18{fill:#e37800;}.cls-19{fill:#ee9300;}.cls-20{fill:#c8c8c8;}.cls-21{fill:#969696;}.cls-22{fill:#dcdcdc;}.cls-23{opacity:0.42;}.cls-24{fill:#0083be;}.cls-25{fill:#00c3ff;}.cls-26{fill:#00a4db;}.cls-27{font-size:15.08px;}.cls-28{font-size:12.93px;fill:#3c3c3c;}.cls-29{letter-spacing:-0.07em;}.cls-30{letter-spacing:-0.11em;}</style><linearGradient id="未命名的渐变_861" x1="436.92" y1="816.85" x2="931.05" y2="98.11" gradientUnits="userSpaceOnUse"><stop offset="0" stop-color="#00c2ff"/><stop offset="0" stop-color="#00c2ff"/><stop offset="0.17" stop-color="#00c2ff" stop-opacity="0.74"/><stop offset="0.33" stop-color="#00c2ff" stop-opacity="0.51"/><stop offset="0.49" stop-color="#00c2ff" stop-opacity="0.33"/><stop offset="0.64" stop-color="#00c2ff" stop-opacity="0.19"/><stop offset="0.78" stop-color="#00c2ff" stop-opacity="0.08"/><stop offset="0.9" stop-color="#00c2ff" stop-opacity="0.02"/><stop offset="1" stop-color="#00c2ff" stop-opacity="0"/></linearGradient><linearGradient id="未命名的渐变_862" x1="266.82" y1="590.27" x2="16.16" y2="590.27" gradientUnits="userSpaceOnUse"><stop offset="0" stop-color="#f2b02d"/><stop offset="0.1" stop-color="#f2b02d" stop-opacity="0.81"/><stop offset="0.23" stop-color="#f2b02d" stop-opacity="0.6"/><stop offset="0.35" stop-color="#f2b02d" stop-opacity="0.42"/><stop offset="0.48" stop-color="#f2b02d" stop-opacity="0.27"/><stop offset="0.61" stop-color="#f2b02d" stop-opacity="0.15"/><stop offset="0.74" stop-color="#f2b02d" stop-opacity="0.07"/><stop offset="0.87" stop-color="#f2b02d" stop-opacity="0.02"/><stop offset="1" stop-color="#f2b02d" stop-opacity="0"/></linearGradient><linearGradient id="未命名的渐变_861-2" x1="497.11" y1="484.99" x2="3.26" y2="484.99" xlink:href="#未命名的渐变_861"/><linearGradient id="未命名的渐变_862-2" x1="506.83" y1="379.72" x2="1.93" y2="379.72" xlink:href="#未命名的渐变_862"/><linearGradient id="未命名的渐变_861-3" x1="800.14" y1="274.44" x2="-0.2" y2="274.44" xlink:href="#未命名的渐变_861"/><linearGradient id="未命名的渐变_862-3" x1="723.95" y1="169.17" x2="2.76" y2="169.17" xlink:href="#未命名的渐变_862"/><linearGradient id="未命名的渐变_862-4" x1="634.4" y1="62.26" x2="970.31" y2="62.26" xlink:href="#未命名的渐变_862"/></defs><title>资源 29</title><g id="图层_2" data-name="图层 2"><g id="图层_1-2" data-name="图层 1"><polyline id="_路径_" data-name="&lt;路径&gt;" class="cls-1" points="501.16 216.51 480.55 219.68 459.02 232.58 483.66 237.91 488.58 259.37 477.41 270.78 480.15 274.68 470.82 281.64 470.82 286.69 470.82 286.69 446.8 310.32 436.84 355.79 399.45 388.59 375.38 390.99 341.73 389.55 314.21 424.64 299.5 435.28 298.46 444.95 288.34 459.4 268.38 461.66 266.54 466.2 235.55 470.01 233.21 475.49 223.56 529.21 205.12 572.8 195.95 580.29 171.66 581.93 150.5 599.7 101.68 615.23 64.67 642.91 1048.33 642.91 1048.33 0 716.76 54.63 680.97 70.81 651.79 91.01 642.41 101.99 632.95 116.53 595.99 189.6 581.69 189.75 576.76 193.46 550.57 193.19 547.59 197.09 533.03 197.03 527.49 202.45 501.16 216.51"/><polygon id="_路径_2" data-name="&lt;路径&gt;" class="cls-2" points="150.5 599.7 171.66 581.93 195.95 580.29 205.12 572.8 220 537.63 0 537.63 0 642.91 64.67 642.91 101.68 615.23 150.5 599.7"/><polygon id="_路径_3" data-name="&lt;路径&gt;" class="cls-3" points="223.56 529.21 233.21 475.49 235.55 470.01 266.54 466.2 268.38 461.66 288.34 459.4 298.46 444.95 299.5 435.28 303.54 432.36 0 432.36 0 537.63 220 537.63 223.56 529.21"/><polygon id="_路径_4" data-name="&lt;路径&gt;" class="cls-4" points="314.21 424.64 341.73 389.55 375.38 390.99 399.45 388.59 436.84 355.79 443.13 327.08 0 327.08 0 432.36 303.54 432.36 314.21 424.64"/><polygon id="_路径_5" data-name="&lt;路径&gt;" class="cls-5" points="446.8 310.32 470.82 286.69 470.82 281.64 480.15 274.68 477.41 270.78 488.58 259.37 483.66 237.91 459.02 232.58 477 221.81 0 221.81 0 327.08 443.13 327.08 446.8 310.32"/><polygon id="_路径_6" data-name="&lt;路径&gt;" class="cls-6" points="480.55 219.68 501.16 216.51 527.49 202.45 533.03 197.03 547.59 197.09 550.57 193.19 576.76 193.46 581.69 189.75 595.99 189.6 632.95 116.53 0 116.53 0 221.81 477 221.81 480.55 219.68"/><g id="_编组_" data-name="&lt;编组&gt;"><text class="cls-7" transform="translate(79.46 604.5)">Incubators</text></g><g id="_编组_2" data-name="&lt;编组&gt;"><text class="cls-7" transform="translate(167.83 511.85)">Angels</text></g><g id="_编组_3" data-name="&lt;编组&gt;"><text class="cls-7" transform="translate(238.92 406.94)"><tspan class="cls-8">V</tspan><tspan x="6.73" y="0">enture Capitals</tspan></text></g><g id="_编组_4" data-name="&lt;编组&gt;"><text class="cls-7" transform="translate(332.9 306.02)">Expansion Capitals</text></g><g id="_编组_5" data-name="&lt;编组&gt;"><text class="cls-9" transform="translate(389.94 172.35)">MBO / LBO / Expansions</text></g><path id="_复合路径_" data-name="&lt;复合路径&gt;" class="cls-10" d="M183.43,537.79l-1.82-2.39-3.44-.41-2.81,6.81-1.62,9.35.74,1.14,3.81.72m21.3-2.51-3.75,28.38m5-38.09-.82,6.3m-12.13.69-1.49,6a1.67,1.67,0,0,0,.15,1.25l4,5.77a3.23,3.23,0,0,1,.75,2.16l-.13,13.23c.05,2.17-4.31,2.29-4.36.24l-.61-12.09-5.64-6.63a5.23,5.23,0,0,1-1.65-5.3L181.32,541a3.77,3.77,0,0,1,2.23-2.79,4.65,4.65,0,0,1,3.72.44,4,4,0,0,1,1.32,1.35l4.73,6.69,7.14.53c1.63.23.45,4.11-.76,3.85l-8.71-.39-6.21-5.78m-6,9-1.42,10.92L170.75,575c-1.07,2.6,2.81,3.59,4,1.42l6.55-9.29a9,9,0,0,0,.9-1.56l1.66-4m8.66-30.61a3.45,3.45,0,0,0-.23-1.31c-1-2.32-6.76-3.16-7.47.28a10.69,10.69,0,0,0,.19,4.36,4.36,4.36,0,0,0,2.84,2.35,3.09,3.09,0,0,0,3.84-1.72A13.37,13.37,0,0,0,192.48,530.94Z"/><path id="_复合路径_2" data-name="&lt;复合路径&gt;" class="cls-10" d="M371,348.46l-1.83-2.39-3.43-.41-2.82,6.81-1.61,9.35L362,363l3.81.73m21.3-2.52-3.75,28.38m5-38.08-.83,6.29m-12.12.69-1.5,6a1.7,1.7,0,0,0,.16,1.26l4,5.76a3.21,3.21,0,0,1,.76,2.16l-.13,13.24c.05,2.16-4.31,2.28-4.36.24L373.74,375l-5.65-6.63a5.26,5.26,0,0,1-1.64-5.31l2.39-11.42a3.75,3.75,0,0,1,2.23-2.79,4.65,4.65,0,0,1,3.72.44,3.88,3.88,0,0,1,1.32,1.35l4.73,6.69,7.14.52c1.63.24.44,4.11-.76,3.86l-8.72-.39-6.21-5.79m-6,9-1.43,10.92-6.59,10.18c-1.08,2.6,2.81,3.59,4,1.42l6.55-9.29a9,9,0,0,0,.89-1.56l1.67-4m8.65-30.6a3.24,3.24,0,0,0-.22-1.31c-1-2.33-6.77-3.17-7.47.28a10.53,10.53,0,0,0,.19,4.36,4.38,4.38,0,0,0,2.84,2.34,3.08,3.08,0,0,0,3.84-1.71A13.34,13.34,0,0,0,380,341.62Z"/><g id="_编组_6" data-name="&lt;编组&gt;"><path id="_路径_7" data-name="&lt;路径&gt;" class="cls-10" d="M267.64,434.59c1.5,2.26,3.29,4.69,4.87,6.76a2.19,2.19,0,0,0,1.77.91l8.81.3c1.49-.21,1.78-3.65.25-3.73l-7.21-.5a1.69,1.69,0,0,1-.52-.45c-1.11-1.83-3.07-5.71-4.44-7.17a4.66,4.66,0,0,0-2.2-1.24c-2.31-.61-4.8-.17-5.79,2.21-1.5,3.64-3.7,8.87-5.07,12.2-1,2.15-.89,5.63,2.42,6.05l7.85.07c.37,0,.7.24.59.87l-.81,8.81c-.05,1.3,3.59,1.53,4.31-.47L274,447.89a2.45,2.45,0,0,0-1.24-2.26l-6.3-.92c-.56-.14-.59-.65-.31-1.24l3.22-6.33"/><path id="_路径_8" data-name="&lt;路径&gt;" class="cls-10" d="M277.52,423.49a3.18,3.18,0,0,0,.08-1.35c-.43-2.52-6-4.68-7.44-1.43a10.72,10.72,0,0,0-.81,4.35,4.43,4.43,0,0,0,2.26,3,3.13,3.13,0,0,0,4.19-.82,13.34,13.34,0,0,0,1.72-3.72Z"/><path id="_路径_9" data-name="&lt;路径&gt;" class="cls-10" d="M263,449.81l.05,6.27a5.66,5.66,0,0,1-.53,2.12l-3,8.3c-.82,1.6-4.86,1.34-4.18-.92l2.69-8.34a5.55,5.55,0,0,0,.18-1.43l-.63-8.69"/><path id="_路径_10" data-name="&lt;路径&gt;" class="cls-10" d="M265.17,429.61l-1.31-3.38-2.33-1a.93.93,0,0,0-1,.33l-3.89,3.69c-1.73,2.25-3.35,7.15-4.48,9.88-.59,1.48,4.7,4,6.37,3.31"/></g><g id="_编组_7" data-name="&lt;编组&gt;"><path id="_路径_11" data-name="&lt;路径&gt;" class="cls-10" d="M577.44,136.81c-.05-.26-.67-.71-.81-.79-2.46-1.47-7.4-1-7.66,2.51,0,.14,0,.32,0,.51"/><path id="_路径_12" data-name="&lt;路径&gt;" class="cls-10" d="M569.85,143.64a5.18,5.18,0,0,0,3.7,2.33,3.66,3.66,0,0,0,4.27-2.6,15.9,15.9,0,0,0,.37-4.79"/><path id="_路径_13" data-name="&lt;路径&gt;" class="cls-10" d="M569.27,148.28s7.71.61,8.91,1.48l3.81,4,6.14-3.08.54-.66,2.33-.18.67.71-.4,3.7-9.73,5.1-.76-.35L578,156.35l-.56.31L576,163l.35,1,6.49,1.58a2.77,2.77,0,0,1,1.77,3.05l-3.2,16c-.73,2.1-5.39,1.51-5,0a88.89,88.89,0,0,1,1.87-13.12,34.58,34.58,0,0,1-5.83-1.16l-.9.4-7.22,17.79c-1.16,1.83-5.79,1.53-5.28-.17L563,175.48l2.78-12-.08-9.08-2.94-10.61a1.57,1.57,0,0,1,.76-1.81c2.5-1.24,8.5-4.13,11.57-4.75,3.94-.8,3.71-.25,4.1.66s-.46,1-1.78,1.59a68.69,68.69,0,0,0-9.56,5.34l0,.43,1.41,3.08Z"/><line id="_路径_14" data-name="&lt;路径&gt;" class="cls-11" x1="593.24" y1="114.12" x2="589.99" y2="150.04"/><line id="_路径_15" data-name="&lt;路径&gt;" class="cls-11" x1="589.52" y1="155.18" x2="587.05" y2="182.4"/><path id="_路径_16" data-name="&lt;路径&gt;" class="cls-10" d="M563.47,147.74l-1.77,1.14a2.18,2.18,0,0,0-.75,1.69l.16,3.77.24,8.75a1.79,1.79,0,0,0,.73,1.62l3.5.32"/><path id="_路径_17" data-name="&lt;路径&gt;" class="cls-10" d="M591.83,129.67c-4.31,2.71-8.26,3.36-12.33,1a9.85,9.85,0,0,0-10.89.46L570,115.94c3.68-1.16,8.35-1.89,12.76-.49,3.39,1.08,6,2.54,10.36.09"/></g><g id="_编组_8" data-name="&lt;编组&gt;"><path id="_路径_18" data-name="&lt;路径&gt;" class="cls-10" d="M461.28,243.61a3,3,0,0,0,.07-1.21c-.39-2.26-5.34-4.19-6.67-1.28A9.6,9.6,0,0,0,454,245a4,4,0,0,0,2,2.66,2.8,2.8,0,0,0,3.75-.73,12.1,12.1,0,0,0,1.55-3.34Z"/><line id="_路径_19" data-name="&lt;路径&gt;" class="cls-11" x1="468.07" y1="235.3" x2="468.07" y2="249.64"/><line id="_路径_20" data-name="&lt;路径&gt;" class="cls-11" x1="468.09" y1="253.18" x2="456.68" y2="258.39"/><line id="_路径_21" data-name="&lt;路径&gt;" class="cls-11" x1="450.68" y1="265.56" x2="450.68" y2="306.02"/><path id="_路径_22" data-name="&lt;路径&gt;" class="cls-10" d="M468,253.23l1.32-.63c.48-.14.26-2.9.16-3a.94.94,0,0,0-.62-.21c-.14,0-6.85,2.94-6.85,2.94s-4.59-4.21-7-4.92-4.22.25-5.86,1.42a17,17,0,0,0-4.37,5.54c-.38,1.17,4.78,4,4.78,4"/><path id="_路径_23" data-name="&lt;路径&gt;" class="cls-10" d="M456.68,253.55l-.27,6.68.24.15,6-2.19a1.16,1.16,0,0,1,1.13.24l9.14,8.06c.94,1.24-.85,3.52-1.89,3.41l-8.28-6.22-.45-.09c-1.26.62-5.52,2.8-7.59,3.51-2.47.85-5-1.89-5-4.09-.26-2.9-.29-7.92-.3-9.24l-.2-.12-.77.77"/><line id="_路径_24" data-name="&lt;路径&gt;" class="cls-11" x1="460.87" y1="256.4" x2="454.85" y2="252.7"/><path id="_路径_25" data-name="&lt;路径&gt;" class="cls-10" d="M458.64,265.4l4.4,2.9a3,3,0,0,1,1.17,1.25l5.23,8.07c1,2.05-1.9,3.65-2.79,2.65l-5.12-7.6-8.34-5.47"/></g><g id="_编组_9" data-name="&lt;编组&gt;"><line id="_路径_26" data-name="&lt;路径&gt;" class="cls-11" x1="52.12" y1="613.35" x2="52.12" y2="616.73"/><line id="_路径_27" data-name="&lt;路径&gt;" class="cls-11" x1="46.83" y1="618.36" x2="44.84" y2="615.35"/><line id="_路径_28" data-name="&lt;路径&gt;" class="cls-11" x1="59.4" y1="615.35" x2="57.4" y2="618.36"/><line id="_路径_29" data-name="&lt;路径&gt;" class="cls-11" x1="43.48" y1="622.45" x2="40.11" y2="620.93"/><line id="_路径_30" data-name="&lt;路径&gt;" class="cls-11" x1="64.12" y1="620.93" x2="60.76" y2="622.45"/><g id="_编组_10" data-name="&lt;编组&gt;"><path id="_路径_31" data-name="&lt;路径&gt;" class="cls-11" d="M52.12,619.9a7.29,7.29,0,0,0-5.64,11.89,8.09,8.09,0,0,1,2.16,3.48c.17.91.3,2.06.3,2.2h6.38a14.76,14.76,0,0,1,.34-2.05,9.89,9.89,0,0,1,2.09-3.63,7.28,7.28,0,0,0-5.63-11.89Z"/><line id="_路径_32" data-name="&lt;路径&gt;" class="cls-11" x1="49.07" y1="639.5" x2="55.17" y2="639.5"/><line id="_路径_33" data-name="&lt;路径&gt;" class="cls-11" x1="50.05" y1="641.5" x2="54.19" y2="641.5"/><line id="_路径_34" data-name="&lt;路径&gt;" class="cls-11" x1="50.98" y1="643.5" x2="53.25" y2="643.5"/><line id="_路径_35" data-name="&lt;路径&gt;" class="cls-11" x1="50.73" y1="630.44" x2="53.51" y2="630.44"/><line id="_路径_36" data-name="&lt;路径&gt;" class="cls-11" x1="50.73" y1="628.66" x2="53.51" y2="628.66"/><line id="_路径_37" data-name="&lt;路径&gt;" class="cls-11" x1="50.73" y1="626.88" x2="53.51" y2="626.88"/><line id="_路径_38" data-name="&lt;路径&gt;" class="cls-11" x1="52.12" y1="637.47" x2="52.12" y2="630.44"/></g></g><path id="_路径_39" data-name="&lt;路径&gt;" class="cls-12" d="M635,112.18c-11.49,18.71-39,77.42-39,77.42l-14.3.15-4.93,3.71-26.19-.27-3,3.9L533,197l-5.54,5.42-26.33,14.06-4.52,1.32-16.1,1.85L459,232.58l24.64,5.33,4.92,21.46-11.17,11.41,2.74,3.9-9.33,7v5.05h0l-24,23.63-10,45.47-37.39,32.8L377,391.06l-35.29-1.51L315.4,423.77l-15.9,11.51-1,9.67-10.12,14.46-20,2.25-1.84,4.54-31,3.82-2.69,6.28-9.3,52.91L205.12,572.8,196,580.29l-24.29,1.64L150.5,599.7l-48.82,15.53-37,27.68"/><path id="_路径_40" data-name="&lt;路径&gt;" class="cls-13" d="M969.67,12.34c-16.23,0-99,15.88-117.75,19.85s-89.3,10.58-105.63,13.23-57.11,20.4-57.11,20.4-30.74,18.26-38.16,26-16,20.41-16,20.41"/><g id="_编组_11" data-name="&lt;编组&gt;"><g id="_编组_12" data-name="&lt;编组&gt;"><path id="_路径_41" data-name="&lt;路径&gt;" class="cls-14" d="M377.89,248.64A3.21,3.21,0,0,0,382,247a14.23,14.23,0,0,0,1-4.09,3.44,3.44,0,0,0-.19-1.38c-.92-2.46-6.92-3.57-7.79,0a11.07,11.07,0,0,0,0,4.55A4.59,4.59,0,0,0,377.89,248.64Z"/><path id="_路径_42" data-name="&lt;路径&gt;" class="cls-14" d="M382.26,265.46l2.26,3.28c1.09,1.16,3.69-.82,2.58-2.71l-3.88-6.67-1.64-4.28c-.07-3.85-4.45-5.56-7.54-3.69l-4.94,7.41c-.7.49-1.42,2.79-1.44,3.59l-1.26,5.83c0,2.56,3.63,2.46,3.72.32l1.56-5.19,1.2-2.73.26,5.77a33.9,33.9,0,0,0,.09,4.22l.17.35a.49.49,0,0,1-.17-.35v0l.38,8.74-3.75,11.78c-.56,2.84,3.59,3.2,4.31.79l4.13-11.26,0-.05,3.95,11.7c.49,2.08,4.66,1.28,4.15-.92l-2.68-12.7c-.33-1.21-.74-2.13-.94-3l-1.8-4.83s.12-3.82.14-4.32l.11-2.82h0Z"/></g><line id="_路径_43" data-name="&lt;路径&gt;" class="cls-15" x1="388.89" y1="285.43" x2="388.92" y2="275.28"/><g id="_编组_13" data-name="&lt;编组&gt;"><path id="_复合路径_3" data-name="&lt;复合路径&gt;" class="cls-14" d="M385.62,281.86l1.33-.2a1.73,1.73,0,0,0,.62,1.16,2.28,2.28,0,0,0,1.42.4,2.14,2.14,0,0,0,1.37-.36,1,1,0,0,0,.45-.83.77.77,0,0,0-.39-.68,6.69,6.69,0,0,0-1.37-.43,12.79,12.79,0,0,1-2.05-.6,2,2,0,0,1-.86-.71,1.8,1.8,0,0,1-.29-1,1.83,1.83,0,0,1,.24-.92,2,2,0,0,1,.66-.71,2.84,2.84,0,0,1,.85-.37,4.28,4.28,0,0,1,1.16-.15,4.77,4.77,0,0,1,1.63.25,2.26,2.26,0,0,1,1,.69,2.57,2.57,0,0,1,.46,1.16l-1.31.17a1.34,1.34,0,0,0-.52-.91,2,2,0,0,0-1.21-.32,2.28,2.28,0,0,0-1.31.29.82.82,0,0,0-.4.67.73.73,0,0,0,.16.45,1.3,1.3,0,0,0,.52.34l1.18.32a16.14,16.14,0,0,1,2,.59,2,2,0,0,1,.88.66,1.8,1.8,0,0,1,.32,1.08,2.07,2.07,0,0,1-.39,1.2,2.5,2.5,0,0,1-1.13.86,4.21,4.21,0,0,1-1.67.31,3.83,3.83,0,0,1-2.35-.61A2.8,2.8,0,0,1,385.62,281.86Z"/></g><polyline id="_路径_44" data-name="&lt;路径&gt;" class="cls-16" points="381.75 272.78 398.18 272.78 398.18 288.26 385.71 288.26"/><polyline id="_路径_45" data-name="&lt;路径&gt;" class="cls-16" points="386.01 268.4 394.06 268.4 394.06 272.78 383.34 272.78 383.34 268.4 385.8 268.4"/></g><g id="_编组_14" data-name="&lt;编组&gt;"><g id="_编组_15" data-name="&lt;编组&gt;"><path id="_路径_46" data-name="&lt;路径&gt;" class="cls-14" d="M275.88,349.15a3.21,3.21,0,0,0,4.07-1.63,14.23,14.23,0,0,0,1-4.09,3.44,3.44,0,0,0-.19-1.38c-.92-2.46-6.92-3.57-7.79,0a11.07,11.07,0,0,0,0,4.55A4.59,4.59,0,0,0,275.88,349.15Z"/><path id="_路径_47" data-name="&lt;路径&gt;" class="cls-14" d="M280.25,366l2.26,3.28c1.09,1.16,3.69-.82,2.58-2.71l-3.88-6.67-1.64-4.28c-.07-3.85-4.45-5.56-7.54-3.69l-4.94,7.41c-.7.49-1.42,2.79-1.44,3.59l-1.26,5.83c0,2.56,3.63,2.46,3.71.32l1.57-5.19,1.2-2.73.26,5.77a33.9,33.9,0,0,0,.09,4.22l.17.35a.49.49,0,0,1-.17-.35v0l.38,8.74-3.76,11.78c-.55,2.84,3.6,3.2,4.32.79l4.13-11.26,0,0,3.95,11.7c.49,2.08,4.66,1.28,4.15-.92l-2.68-12.7c-.33-1.21-.74-2.13-.94-3l-1.8-4.83s.12-3.82.14-4.32l.11-2.82h0Z"/></g><line id="_路径_48" data-name="&lt;路径&gt;" class="cls-15" x1="286.88" y1="385.94" x2="286.91" y2="375.79"/><g id="_编组_16" data-name="&lt;编组&gt;"><path id="_复合路径_4" data-name="&lt;复合路径&gt;" class="cls-14" d="M283.61,382.37l1.33-.2a1.73,1.73,0,0,0,.62,1.16,2.28,2.28,0,0,0,1.42.4,2.14,2.14,0,0,0,1.37-.36,1,1,0,0,0,.45-.83.77.77,0,0,0-.39-.68,6.69,6.69,0,0,0-1.37-.43,12.79,12.79,0,0,1-2.05-.6,2,2,0,0,1-.86-.71,1.8,1.8,0,0,1-.29-1,1.83,1.83,0,0,1,.24-.92,2,2,0,0,1,.66-.71,2.84,2.84,0,0,1,.85-.37,4.28,4.28,0,0,1,1.16-.15,4.77,4.77,0,0,1,1.63.25,2.26,2.26,0,0,1,1,.69,2.69,2.69,0,0,1,.46,1.16l-1.31.17a1.34,1.34,0,0,0-.52-.91,2,2,0,0,0-1.21-.32,2.28,2.28,0,0,0-1.31.29.82.82,0,0,0-.4.67.73.73,0,0,0,.16.45,1.24,1.24,0,0,0,.52.34l1.18.32a16.14,16.14,0,0,1,2,.59,2,2,0,0,1,.88.66,1.8,1.8,0,0,1,.32,1.08,2.07,2.07,0,0,1-.39,1.2,2.5,2.5,0,0,1-1.13.86,4.21,4.21,0,0,1-1.67.31,3.83,3.83,0,0,1-2.35-.61A2.8,2.8,0,0,1,283.61,382.37Z"/></g><polyline id="_路径_49" data-name="&lt;路径&gt;" class="cls-16" points="279.74 373.29 296.17 373.29 296.17 388.77 283.7 388.77"/><polyline id="_路径_50" data-name="&lt;路径&gt;" class="cls-16" points="284 368.91 292.05 368.91 292.05 373.29 281.33 373.29 281.33 368.91 283.79 368.91"/></g><g id="_编组_17" data-name="&lt;编组&gt;"><g id="_编组_18" data-name="&lt;编组&gt;"><path id="_路径_51" data-name="&lt;路径&gt;" class="cls-14" d="M179.87,453.79a3.22,3.22,0,0,0,4.07-1.64,14.07,14.07,0,0,0,1-4.09,3.47,3.47,0,0,0-.19-1.38c-.92-2.46-6.92-3.56-7.79,0a11.07,11.07,0,0,0,0,4.55A4.57,4.57,0,0,0,179.87,453.79Z"/><path id="_路径_52" data-name="&lt;路径&gt;" class="cls-14" d="M184.24,470.61l2.26,3.28c1.09,1.16,3.69-.83,2.58-2.72l-3.88-6.66-1.64-4.29c-.07-3.85-4.45-5.55-7.54-3.69l-4.94,7.41c-.7.5-1.42,2.8-1.44,3.59l-1.26,5.84c0,2.56,3.63,2.46,3.72.31l1.56-5.19,1.2-2.72.26,5.76a33.86,33.86,0,0,0,.09,4.22l.17.35a.47.47,0,0,1-.17-.35h0l.38,8.73-3.75,11.78c-.56,2.84,3.59,3.21,4.31.8l4.13-11.26,0-.05,4,11.69c.49,2.08,4.66,1.28,4.15-.92l-2.68-12.69c-.32-1.21-.74-2.13-.94-3L183,476s.12-3.83.14-4.32l.11-2.83h0Z"/></g><line id="_路径_53" data-name="&lt;路径&gt;" class="cls-15" x1="190.87" y1="490.57" x2="190.9" y2="480.43"/><g id="_编组_19" data-name="&lt;编组&gt;"><path id="_复合路径_5" data-name="&lt;复合路径&gt;" class="cls-14" d="M187.6,487l1.33-.2a1.7,1.7,0,0,0,.62,1.15,2.79,2.79,0,0,0,2.79.05,1.06,1.06,0,0,0,.45-.84.76.76,0,0,0-.39-.67,6.09,6.09,0,0,0-1.37-.43,12.53,12.53,0,0,1-2.05-.61,2,2,0,0,1-.86-.71,1.77,1.77,0,0,1-.29-1,1.9,1.9,0,0,1,.24-.93,2,2,0,0,1,.66-.7,2.71,2.71,0,0,1,.85-.37,4.28,4.28,0,0,1,1.16-.15,4.77,4.77,0,0,1,1.63.25,2.33,2.33,0,0,1,1,.68,2.62,2.62,0,0,1,.46,1.16l-1.31.17a1.34,1.34,0,0,0-.52-.9,1.94,1.94,0,0,0-1.21-.32,2.29,2.29,0,0,0-1.31.28.83.83,0,0,0-.4.68.72.72,0,0,0,.16.44,1.21,1.21,0,0,0,.52.34c.13.05.53.16,1.18.32a18.17,18.17,0,0,1,2,.59,2.05,2.05,0,0,1,.88.67,1.8,1.8,0,0,1,.32,1.08,2,2,0,0,1-.39,1.19,2.51,2.51,0,0,1-1.13.87,4.4,4.4,0,0,1-1.67.3,3.9,3.9,0,0,1-2.35-.6A2.8,2.8,0,0,1,187.6,487Z"/></g><polyline id="_路径_54" data-name="&lt;路径&gt;" class="cls-16" points="183.73 477.93 200.16 477.93 200.16 493.4 187.69 493.4"/><polyline id="_路径_55" data-name="&lt;路径&gt;" class="cls-16" points="187.99 473.54 196.04 473.54 196.04 477.93 185.32 477.93 185.32 473.54 187.78 473.54"/></g><g id="_编组_20" data-name="&lt;编组&gt;"><g id="_编组_21" data-name="&lt;编组&gt;"><path id="_路径_56" data-name="&lt;路径&gt;" class="cls-14" d="M104.49,545.67a3.21,3.21,0,0,0,4.07-1.63,13.87,13.87,0,0,0,1-4.09,3.28,3.28,0,0,0-.18-1.38c-.92-2.46-6.92-3.57-7.79,0a10.9,10.9,0,0,0,0,4.55A4.59,4.59,0,0,0,104.49,545.67Z"/><path id="_路径_57" data-name="&lt;路径&gt;" class="cls-14" d="M108.86,562.49l2.26,3.28c1.09,1.16,3.69-.82,2.57-2.71l-3.88-6.67-1.63-4.28c-.08-3.85-4.45-5.56-7.54-3.69l-4.94,7.41c-.7.49-1.42,2.79-1.44,3.58L93,565.25c0,2.56,3.64,2.46,3.72.32l1.57-5.19,1.2-2.73.25,5.77a36,36,0,0,0,.09,4.22l.18.35a.49.49,0,0,1-.18-.35v0l.37,8.74-3.75,11.78c-.55,2.84,3.6,3.2,4.32.79l4.13-11.26,0,0,4,11.7c.49,2.08,4.66,1.28,4.15-.92l-2.68-12.7c-.33-1.21-.74-2.13-.94-3l-1.8-4.83s.12-3.83.14-4.32l.11-2.82h0Z"/></g><line id="_路径_58" data-name="&lt;路径&gt;" class="cls-15" x1="115.49" y1="582.46" x2="115.51" y2="572.31"/><g id="_编组_22" data-name="&lt;编组&gt;"><path id="_复合路径_6" data-name="&lt;复合路径&gt;" class="cls-14" d="M112.22,578.89l1.33-.2a1.73,1.73,0,0,0,.62,1.16,2.28,2.28,0,0,0,1.42.4,2.16,2.16,0,0,0,1.37-.36,1,1,0,0,0,.45-.83.76.76,0,0,0-.4-.68,6.47,6.47,0,0,0-1.37-.43,12.92,12.92,0,0,1-2-.6,1.93,1.93,0,0,1-.86-.72,1.82,1.82,0,0,1,0-1.92,2.11,2.11,0,0,1,.65-.71,2.77,2.77,0,0,1,.86-.37,4.26,4.26,0,0,1,1.15-.15,4.83,4.83,0,0,1,1.64.25,2.26,2.26,0,0,1,1,.69,2.69,2.69,0,0,1,.46,1.16l-1.31.16a1.34,1.34,0,0,0-.52-.9,2,2,0,0,0-1.21-.32,2.34,2.34,0,0,0-1.32.29.83.83,0,0,0-.39.67.67.67,0,0,0,.16.45,1.24,1.24,0,0,0,.52.34l1.18.32a15.31,15.31,0,0,1,2,.59,1.92,1.92,0,0,1,.88.66,1.73,1.73,0,0,1,.32,1.08,2.07,2.07,0,0,1-.39,1.2,2.47,2.47,0,0,1-1.12.86,4.21,4.21,0,0,1-1.67.31,3.83,3.83,0,0,1-2.35-.61A2.76,2.76,0,0,1,112.22,578.89Z"/></g><polyline id="_路径_59" data-name="&lt;路径&gt;" class="cls-16" points="108.35 569.81 124.78 569.81 124.78 585.29 112.31 585.29"/><polyline id="_路径_60" data-name="&lt;路径&gt;" class="cls-16" points="112.61 565.43 120.66 565.43 120.66 569.81 109.94 569.81 109.94 565.43 112.4 565.43"/></g><g id="_编组_23" data-name="&lt;编组&gt;"><text class="cls-7" transform="translate(456.33 542.35)">Startup</text></g><path id="_复合路径_7" data-name="&lt;复合路径&gt;" class="cls-14" d="M952.67,403.36c-1.37,2.55-1,4.58.73,6.46a10.55,10.55,0,0,1,2.84,9.06c-.28,2.2-.14,4.45-.24,6.67-.09,2-.9,2.77-2.62,2.78s-2.46-.78-2.59-2.65c-.19-2.7-.24-5.42-.48-8.11a9,9,0,0,0-.93-2.35c-2.31,4-4.39,7.62-6.5,11.23-.92,1.6-2,2.16-3.27,1.77a2.68,2.68,0,0,1-1.59-4q1.61-3.41,3.34-6.76c1.62-3.15,1.67-6.57,1.95-10q.53-6.44,1.46-12.82a4,4,0,0,1,2.85-3c.44-.16.88-.34,1.48-.58-1.39-1.54-2.6-3.15-1.89-5.12a6.87,6.87,0,0,1,2.36-3.12c2.09-1.49,5.21-.48,6.48,1.84,1.48,2.7.27,5.17-3.34,7.11,1.25,2.38,2.53,4.73,3.73,7.11a2.38,2.38,0,0,0,2.19,1.56,22.77,22.77,0,0,1,4,.57,5.22,5.22,0,0,1,1.51,1c.41.28.78.75,1.23.84,1.06.19,1.36.79,1.53,1.77.57,3.28.06,2.72,3.15,2.73,6.1,0,12.2,0,18.3,0h2c-.56,1.65-1,3-1.51,4.41-.78,2.18-1.61,4.34-2.37,6.53a2.11,2.11,0,0,1-2.33,1.65c-4.45-.07-8.9,0-13.36,0-1.69,0-2.25.58-2.18,2.27,0,.19,0,.53.09.54,1.73.25,2.1,2.3,4.42,2.3h3.62c1.54,0,2.47-.05,3.43-1.3a2.41,2.41,0,0,1,3.61.11,2.67,2.67,0,0,1-.09,3.78,2.53,2.53,0,0,1-3.75-.16,2.85,2.85,0,0,0-2.63-1.1h-3.34c-1.37,0-2.58,0-3.59,1.28a2.22,2.22,0,0,1-3.16.24,2.34,2.34,0,0,1-.93-3.18c1.68-3,1.45-6.12,1-9.3s-1-6.6-1.54-9.9c-.24-1.48-.4-1.5-1.67-.66a2.83,2.83,0,0,1-1.49.38c-1.84,0-3.68-.09-5.52,0S953.69,405.15,952.67,403.36Z"/><path id="_复合路径_8" data-name="&lt;复合路径&gt;" class="cls-14" d="M466.47,504.46c-1.41,2.6-1.07,4.66.74,6.58a10.77,10.77,0,0,1,2.89,9.25c-.28,2.24-.14,4.54-.24,6.81-.1,2-.92,2.83-2.67,2.83s-2.51-.79-2.65-2.7c-.19-2.76-.24-5.53-.48-8.28a9.39,9.39,0,0,0-1-2.39c-2.35,4.07-4.48,7.77-6.62,11.46-1,1.63-2,2.2-3.35,1.81a2.74,2.74,0,0,1-1.62-4.07c1.09-2.32,2.23-4.63,3.4-6.91,1.66-3.21,1.71-6.71,2-10.2q.54-6.56,1.49-13.07a4.05,4.05,0,0,1,2.9-3.11l1.52-.59c-1.42-1.57-2.66-3.22-1.93-5.23a7,7,0,0,1,2.4-3.18c2.14-1.52,5.33-.49,6.62,1.88,1.51,2.76.27,5.27-3.41,7.26,1.28,2.42,2.58,4.82,3.81,7.25a2.42,2.42,0,0,0,2.24,1.59,22.64,22.64,0,0,1,4.09.58,5,5,0,0,1,1.54,1c.43.29.81.77,1.27.86,1.07.2,1.38.8,1.55,1.81.58,3.34.06,2.77,3.22,2.79,6.23,0,12.45,0,18.68,0h2c-.58,1.68-1,3.09-1.54,4.49-.8,2.23-1.65,4.43-2.42,6.67a2.16,2.16,0,0,1-2.38,1.68c-4.54-.07-9.09,0-13.64,0-1.72,0-2.3.59-2.22,2.32,0,.19,0,.54.09.55,1.77.26,2.14,2.35,4.51,2.35H491c1.57,0,2.51-.06,3.49-1.33a2.46,2.46,0,0,1,3.69.11,2.73,2.73,0,0,1-.09,3.86,2.58,2.58,0,0,1-3.83-.17,2.91,2.91,0,0,0-2.69-1.12h-3.41c-1.39,0-2.63,0-3.65,1.3a2.27,2.27,0,0,1-3.23.24,2.38,2.38,0,0,1-.95-3.24c1.71-3.07,1.48-6.25,1-9.49s-1-6.74-1.58-10.1c-.24-1.51-.4-1.53-1.7-.68a2.91,2.91,0,0,1-1.51.39c-1.88,0-3.76-.09-5.64,0S467.51,506.28,466.47,504.46Zm6.32.56a29.23,29.23,0,0,0,3,0,5.13,5.13,0,0,0,1.43-.63c-.43-.38-.82-1-1.31-1.1a30.83,30.83,0,0,0-4.4-.6,2,2,0,0,1-1.9-1.34q-1.4-2.94-2.91-5.82a3.84,3.84,0,0,0-4.14-1.95,3.4,3.4,0,0,0-3,2.85c-.47,3.78-.88,7.56-1.28,11.34a4.12,4.12,0,0,0,1.31,3.47c1.63,1.65,3.28,3.29,4.8,5a4.46,4.46,0,0,1,1,2.32c.28,2.85.4,5.71.57,8.57.05.84.29,1.48,1.27,1.45s1.24-.62,1.26-1.48a52.19,52.19,0,0,1,.24-6.51,10.34,10.34,0,0,0-2.81-9.09,5.77,5.77,0,0,1-1.29-6.26c.34-1.09.88-2.35-.11-3.53-.26-.31-.14-.93-.2-1.41.43.23.88.43,1.29.7a1.74,1.74,0,0,1,.45.58C467.55,504.2,469.51,505.9,472.79,505Zm19.52,4.8H483c-.68,0-1.36,0-1.22,1,.38,2.63.79,5.26,1.16,7.9.13.9.58,1.23,1.49,1.22,4.59,0,9.17,0,13.76-.06a2.17,2.17,0,0,0,1.58-1.12c1-2.45,1.82-5,2.78-7.47.45-1.15.12-1.5-1.06-1.49C498.43,509.85,495.37,509.82,492.31,509.82Zm-34.26,2.24a14.14,14.14,0,0,0-.24,1.43,15.78,15.78,0,0,1-2,6.72c-1.08,2-2,4-3,6.09a1.94,1.94,0,0,0-.14,1.37c.17.38.78.91,1.06.84a2.7,2.7,0,0,0,1.46-1c1.75-2.85,3.42-5.75,5.12-8.63C462.09,515.76,461.46,514.35,458.05,512.06Zm11-24.31a3.38,3.38,0,0,0-3.45-3.58,3.45,3.45,0,0,0-3.53,3.39,3.7,3.7,0,0,0,3.5,3.68A3.58,3.58,0,0,0,469.08,487.75Zm15,39.5a1.32,1.32,0,0,0-1.37-1.32,1.28,1.28,0,0,0,0,2.56A1.27,1.27,0,0,0,484.11,527.25Zm13.48,0a1.28,1.28,0,0,0-1.31-1.29,1.2,1.2,0,0,0-1.26,1.17,1.35,1.35,0,0,0,1.25,1.38A1.25,1.25,0,0,0,497.59,527.23Z"/><path id="_复合路径_9" data-name="&lt;复合路径&gt;" class="cls-14" d="M557.22,249.48c-1.41,2.6-1.07,4.67.74,6.59a10.75,10.75,0,0,1,2.89,9.25c-.28,2.24-.14,4.54-.24,6.81-.1,2-.92,2.83-2.67,2.83s-2.51-.79-2.65-2.7c-.19-2.76-.24-5.53-.48-8.28a9.44,9.44,0,0,0-1-2.4c-2.35,4.08-4.48,7.78-6.63,11.47-.94,1.63-2,2.2-3.34,1.8a2.74,2.74,0,0,1-1.62-4.07c1.09-2.32,2.23-4.62,3.4-6.9,1.66-3.22,1.71-6.71,2-10.2.36-4.37.86-8.74,1.49-13.08a4.08,4.08,0,0,1,2.9-3.11c.46-.16.9-.34,1.52-.58-1.42-1.58-2.66-3.22-1.93-5.23a7,7,0,0,1,2.4-3.18c2.14-1.52,5.33-.49,6.62,1.87,1.51,2.76.27,5.28-3.41,7.27,1.28,2.42,2.58,4.81,3.81,7.25a2.39,2.39,0,0,0,2.24,1.58,23.58,23.58,0,0,1,4.09.59,5.09,5.09,0,0,1,1.54,1c.43.29.81.77,1.27.85,1.07.21,1.38.81,1.55,1.82.58,3.34.06,2.77,3.22,2.78,6.23,0,12.45,0,18.68,0h2c-.58,1.69-1,3.1-1.54,4.5-.8,2.22-1.65,4.43-2.42,6.67a2.16,2.16,0,0,1-2.38,1.68c-4.54-.08-9.09,0-13.64,0-1.72,0-2.3.59-2.22,2.31,0,.2,0,.55.09.56,1.77.26,2.14,2.35,4.51,2.35h3.7c1.57,0,2.51-.06,3.49-1.33a2.46,2.46,0,0,1,3.69.11,2.73,2.73,0,0,1-.09,3.86,2.58,2.58,0,0,1-3.83-.17,2.91,2.91,0,0,0-2.69-1.12h-3.41c-1.39,0-2.63,0-3.65,1.31a2.28,2.28,0,0,1-3.23.24,2.39,2.39,0,0,1-.95-3.25c1.71-3.06,1.48-6.24,1-9.49s-1-6.73-1.58-10.09c-.24-1.51-.4-1.54-1.7-.68a2.92,2.92,0,0,1-1.52.39c-1.87,0-3.75-.1-5.63-.05S558.26,251.3,557.22,249.48Zm6.32.57a29.23,29.23,0,0,0,3,0,5.13,5.13,0,0,0,1.43-.63c-.43-.38-.82-1-1.31-1.1a30.83,30.83,0,0,0-4.4-.6,2.06,2.06,0,0,1-1.9-1.34c-.93-2-1.9-3.91-2.91-5.82a3.84,3.84,0,0,0-4.14-1.95,3.4,3.4,0,0,0-3,2.85c-.48,3.77-.88,7.55-1.28,11.33a4.15,4.15,0,0,0,1.31,3.48c1.63,1.65,3.28,3.29,4.8,5a4.43,4.43,0,0,1,1,2.32c.28,2.85.4,5.71.57,8.57,0,.84.29,1.48,1.27,1.45s1.24-.63,1.26-1.49a52.26,52.26,0,0,1,.24-6.51,10.32,10.32,0,0,0-2.81-9.08,5.78,5.78,0,0,1-1.29-6.27c.34-1.09.88-2.35-.11-3.53-.26-.31-.14-.92-.2-1.4.43.23.88.43,1.29.7a1.74,1.74,0,0,1,.45.58C558.3,249.22,560.26,250.93,563.54,250.05Zm19.52,4.8h-9.32c-.68,0-1.36,0-1.22,1,.38,2.63.79,5.26,1.16,7.89.13.91.58,1.24,1.49,1.23,4.59,0,9.17,0,13.76-.07a2.19,2.19,0,0,0,1.58-1.11c1-2.46,1.82-5,2.78-7.47.45-1.15.12-1.51-1.06-1.49C589.18,254.88,586.12,254.85,583.06,254.85Zm-34.26,2.24a13.7,13.7,0,0,0-.24,1.43,15.78,15.78,0,0,1-2,6.72c-1.08,2-2,4-3,6.08a2,2,0,0,0-.14,1.38c.17.38.78.91,1.06.84a2.7,2.7,0,0,0,1.46-1c1.75-2.85,3.42-5.75,5.12-8.63C552.84,260.79,552.21,259.38,548.8,257.09Zm11-24.31a3.38,3.38,0,0,0-3.45-3.58,3.44,3.44,0,0,0-3.53,3.39,3.7,3.7,0,0,0,3.5,3.68A3.59,3.59,0,0,0,559.83,232.78Zm15,39.5a1.32,1.32,0,0,0-1.37-1.32,1.28,1.28,0,0,0,0,2.56A1.27,1.27,0,0,0,574.86,272.28Zm13.48,0A1.28,1.28,0,0,0,587,271a1.2,1.2,0,0,0-1.26,1.17,1.35,1.35,0,0,0,1.25,1.38A1.26,1.26,0,0,0,588.34,272.25Z"/><g id="_编组_24" data-name="&lt;编组&gt;" class="cls-17"><polygon id="_路径_61" data-name="&lt;路径&gt;" class="cls-18" points="782.9 154.96 782.9 104.97 767.85 119.27 767.85 169.26 782.9 154.96 782.9 154.96"/><polygon id="_路径_62" data-name="&lt;路径&gt;" class="cls-18" points="782.9 161.07 767.85 175.38 767.85 225.37 782.9 211.06 782.9 161.07"/><polygon id="_路径_63" data-name="&lt;路径&gt;" class="cls-14" points="782.9 154.96 767.85 169.26 1014.77 169.26 1029.82 154.96 782.9 154.96"/><polygon id="_路径_64" data-name="&lt;路径&gt;" class="cls-14" points="782.9 211.06 782.9 211.06 767.85 225.37 1014.77 225.37 1029.82 211.06 782.9 211.06"/><g id="_编组_25" data-name="&lt;编组&gt;"><path id="_复合路径_10" data-name="&lt;复合路径&gt;" class="cls-19" d="M1020.42,232.14H761.06V112.92h259.36Zm-252.57-6.77h245.78V119.69H767.85Z"/></g><polygon id="_路径_65" data-name="&lt;路径&gt;" class="cls-18" points="1037.69 96.5 1020.42 112.92 1020.42 232.14 1037.69 215.72 1037.69 96.5"/><polygon id="_路径_66" data-name="&lt;路径&gt;" class="cls-14" points="778.33 96.5 761.06 112.92 1020.42 112.92 1037.69 96.5 778.33 96.5"/><rect id="_矩形_" data-name="&lt;矩形&gt;" class="cls-19" x="767.85" y="169.26" width="245.78" height="6.53"/><g id="_编组_26" data-name="&lt;编组&gt;"><g id="_编组_27" data-name="&lt;编组&gt;"><path id="_复合路径_11" data-name="&lt;复合路径&gt;" class="cls-20" d="M855.92,162.1H791.19v-31h64.73Z"/></g><polygon id="_路径_67" data-name="&lt;路径&gt;" class="cls-21" points="860.48 126.77 855.92 131.1 855.92 162.1 860.48 157.77 860.48 126.77"/><polygon id="_路径_68" data-name="&lt;路径&gt;" class="cls-22" points="795.75 126.77 791.19 131.1 855.92 131.1 860.48 126.77 795.75 126.77"/><g id="_编组_28" data-name="&lt;编组&gt;"><path id="_复合路径_12" data-name="&lt;复合路径&gt;" class="cls-20" d="M929.58,162.1H864.86v-31h64.72Z"/></g><polygon id="_路径_69" data-name="&lt;路径&gt;" class="cls-21" points="934.14 126.77 929.58 131.1 929.58 162.1 934.14 157.77 934.14 126.77"/><polygon id="_路径_70" data-name="&lt;路径&gt;" class="cls-22" points="869.42 126.77 864.86 131.1 929.58 131.1 934.14 126.77 869.42 126.77"/><g id="_编组_29" data-name="&lt;编组&gt;"><path id="_复合路径_13" data-name="&lt;复合路径&gt;" class="cls-20" d="M1003.25,162.1H938.53v-31h64.72Z"/></g><polygon id="_路径_71" data-name="&lt;路径&gt;" class="cls-21" points="1007.81 126.77 1003.25 131.1 1003.25 162.1 1007.81 157.77 1007.81 126.77"/><polygon id="_路径_72" data-name="&lt;路径&gt;" class="cls-22" points="943.09 126.77 938.53 131.1 1003.25 131.1 1007.81 126.77 943.09 126.77"/><g id="_编组_30" data-name="&lt;编组&gt;"><path id="_复合路径_14" data-name="&lt;复合路径&gt;" class="cls-20" d="M855.92,217.67H791.19v-31h64.73Z"/></g><polygon id="_路径_73" data-name="&lt;路径&gt;" class="cls-21" points="860.48 182.34 855.92 186.67 855.92 217.67 860.48 213.34 860.48 182.34"/><polygon id="_路径_74" data-name="&lt;路径&gt;" class="cls-22" points="795.75 182.34 791.19 186.67 855.92 186.67 860.48 182.34 795.75 182.34"/><g id="_编组_31" data-name="&lt;编组&gt;"><path id="_复合路径_15" data-name="&lt;复合路径&gt;" class="cls-20" d="M929.58,217.67H864.86v-31h64.72Z"/></g><polygon id="_路径_75" data-name="&lt;路径&gt;" class="cls-21" points="934.14 182.34 929.58 186.67 929.58 217.67 934.14 213.34 934.14 182.34"/><polygon id="_路径_76" data-name="&lt;路径&gt;" class="cls-22" points="869.42 182.34 864.86 186.67 929.58 186.67 934.14 182.34 869.42 182.34"/><g id="_编组_32" data-name="&lt;编组&gt;"><path id="_复合路径_16" data-name="&lt;复合路径&gt;" class="cls-20" d="M1003.25,217.67H938.53v-31h64.72Z"/></g><polygon id="_路径_77" data-name="&lt;路径&gt;" class="cls-21" points="1007.81 182.34 1003.25 186.67 1003.25 217.67 1007.81 213.34 1007.81 182.34"/><polygon id="_路径_78" data-name="&lt;路径&gt;" class="cls-22" points="943.09 182.34 938.53 186.67 1003.25 186.67 1007.81 182.34 943.09 182.34"/></g><g id="_编组_33" data-name="&lt;编组&gt;"><g id="_编组_34" data-name="&lt;编组&gt;"><path id="_复合路径_17" data-name="&lt;复合路径&gt;" class="cls-20" d="M850.24,167.61H785.52v-31h64.72Z"/></g><polygon id="_路径_79" data-name="&lt;路径&gt;" class="cls-21" points="854.8 132.28 850.24 136.62 850.24 167.62 854.8 163.28 854.8 132.28"/><polygon id="_路径_80" data-name="&lt;路径&gt;" class="cls-22" points="790.08 132.28 785.52 136.62 850.24 136.62 854.8 132.28 790.08 132.28"/><g id="_编组_35" data-name="&lt;编组&gt;"><path id="_复合路径_18" data-name="&lt;复合路径&gt;" class="cls-20" d="M923.91,167.61H859.18v-31h64.73Z"/></g><polygon id="_路径_81" data-name="&lt;路径&gt;" class="cls-21" points="928.47 132.28 923.91 136.62 923.91 167.62 928.47 163.28 928.47 132.28"/><polygon id="_路径_82" data-name="&lt;路径&gt;" class="cls-22" points="863.74 132.28 859.18 136.62 923.91 136.62 928.47 132.28 863.74 132.28"/><g id="_编组_36" data-name="&lt;编组&gt;"><path id="_复合路径_19" data-name="&lt;复合路径&gt;" class="cls-20" d="M997.57,167.61H932.85v-31h64.72Z"/></g><polygon id="_路径_83" data-name="&lt;路径&gt;" class="cls-21" points="1002.13 132.28 997.57 136.62 997.57 167.62 1002.13 163.28 1002.13 132.28"/><polygon id="_路径_84" data-name="&lt;路径&gt;" class="cls-22" points="937.41 132.28 932.85 136.62 997.57 136.62 1002.13 132.28 937.41 132.28"/><g id="_编组_37" data-name="&lt;编组&gt;"><path id="_复合路径_20" data-name="&lt;复合路径&gt;" class="cls-20" d="M850.24,223.18H785.52v-31h64.72Z"/></g><polygon id="_路径_85" data-name="&lt;路径&gt;" class="cls-21" points="854.8 187.85 850.24 192.19 850.24 223.19 854.8 218.85 854.8 187.85"/><polygon id="_路径_86" data-name="&lt;路径&gt;" class="cls-22" points="790.08 187.85 785.52 192.19 850.24 192.19 854.8 187.85 790.08 187.85"/><g id="_编组_38" data-name="&lt;编组&gt;"><path id="_复合路径_21" data-name="&lt;复合路径&gt;" class="cls-20" d="M923.91,223.18H859.18v-31h64.73Z"/></g><polygon id="_路径_87" data-name="&lt;路径&gt;" class="cls-21" points="928.47 187.85 923.91 192.19 923.91 223.19 928.47 218.85 928.47 187.85"/><polygon id="_路径_88" data-name="&lt;路径&gt;" class="cls-22" points="863.74 187.85 859.18 192.19 923.91 192.19 928.47 187.85 863.74 187.85"/><g id="_编组_39" data-name="&lt;编组&gt;"><path id="_复合路径_22" data-name="&lt;复合路径&gt;" class="cls-20" d="M997.57,223.18H932.85v-31h64.72Z"/></g><polygon id="_路径_89" data-name="&lt;路径&gt;" class="cls-21" points="1002.13 187.85 997.57 192.19 997.57 223.19 1002.13 218.85 1002.13 187.85"/><polygon id="_路径_90" data-name="&lt;路径&gt;" class="cls-22" points="937.41 187.85 932.85 192.19 997.57 192.19 1002.13 187.85 937.41 187.85"/></g></g><g id="_编组_40" data-name="&lt;编组&gt;" class="cls-23"><polygon id="_路径_91" data-name="&lt;路径&gt;" class="cls-24" points="669.09 207.3 669.09 153.13 652.78 168.63 652.78 222.8 669.09 207.3 669.09 207.3"/><polygon id="_路径_92" data-name="&lt;路径&gt;" class="cls-24" points="669.09 213.92 652.78 229.42 652.78 283.59 669.09 268.09 669.09 213.92"/><polygon id="_路径_93" data-name="&lt;路径&gt;" class="cls-25" points="669.09 207.3 652.78 222.8 920.32 222.8 936.63 207.3 669.09 207.3"/><polygon id="_路径_94" data-name="&lt;路径&gt;" class="cls-25" points="669.09 268.09 669.09 268.09 652.78 283.59 920.32 283.59 936.63 268.09 669.09 268.09"/><g id="_编组_41" data-name="&lt;编组&gt;"><path id="_复合路径_23" data-name="&lt;复合路径&gt;" class="cls-26" d="M926.44,290.92h-281V161.75h281Zm-273.65-7.33h266.3V169.08H652.79Z"/></g><polygon id="_路径_95" data-name="&lt;路径&gt;" class="cls-24" points="945.15 143.96 926.44 161.75 926.44 290.92 945.15 273.14 945.15 143.96"/><polygon id="_路径_96" data-name="&lt;路径&gt;" class="cls-25" points="664.14 143.96 645.43 161.75 926.44 161.75 945.15 143.96 664.14 143.96"/><rect id="_矩形_2" data-name="&lt;矩形&gt;" class="cls-26" x="652.79" y="222.8" width="266.3" height="7.07"/><g id="_编组_42" data-name="&lt;编组&gt;"><g id="_编组_43" data-name="&lt;编组&gt;"><path id="_复合路径_24" data-name="&lt;复合路径&gt;" class="cls-20" d="M729.49,215H678.08V181.37h51.41Z"/></g><polygon id="_路径_97" data-name="&lt;路径&gt;" class="cls-21" points="734.43 176.68 729.49 181.37 729.49 214.96 734.43 210.26 734.43 176.68"/><polygon id="_路径_98" data-name="&lt;路径&gt;" class="cls-22" points="683.02 176.68 678.08 181.37 729.49 181.37 734.43 176.68 683.02 176.68"/><g id="_编组_44" data-name="&lt;编组&gt;"><path id="_复合路径_25" data-name="&lt;复合路径&gt;" class="cls-20" d="M788.94,215H737.53V181.37h51.41Z"/></g><polygon id="_路径_99" data-name="&lt;路径&gt;" class="cls-21" points="793.88 176.68 788.94 181.37 788.94 214.96 793.88 210.26 793.88 176.68"/><polygon id="_路径_100" data-name="&lt;路径&gt;" class="cls-22" points="742.47 176.68 737.53 181.37 788.94 181.37 793.88 176.68 742.47 176.68"/><g id="_编组_45" data-name="&lt;编组&gt;"><path id="_复合路径_26" data-name="&lt;复合路径&gt;" class="cls-20" d="M848.39,215H797V181.37h51.41Z"/></g><polygon id="_路径_101" data-name="&lt;路径&gt;" class="cls-21" points="853.33 176.68 848.39 181.37 848.39 214.96 853.33 210.26 853.33 176.68"/><polygon id="_路径_102" data-name="&lt;路径&gt;" class="cls-22" points="801.91 176.68 796.98 181.37 848.39 181.37 853.33 176.68 801.91 176.68"/><g id="_编组_46" data-name="&lt;编组&gt;"><path id="_复合路径_27" data-name="&lt;复合路径&gt;" class="cls-20" d="M907.84,215H856.43V181.37h51.41Z"/></g><polygon id="_路径_103" data-name="&lt;路径&gt;" class="cls-21" points="912.78 176.68 907.84 181.37 907.84 214.96 912.78 210.26 912.78 176.68"/><polygon id="_路径_104" data-name="&lt;路径&gt;" class="cls-22" points="861.37 176.68 856.42 181.37 907.84 181.37 912.78 176.68 861.37 176.68"/><g id="_编组_47" data-name="&lt;编组&gt;"><path id="_复合路径_28" data-name="&lt;复合路径&gt;" class="cls-20" d="M748.21,275.17H678.08V241.58h70.13Z"/></g><polygon id="_路径_105" data-name="&lt;路径&gt;" class="cls-21" points="753.15 236.89 748.21 241.58 748.21 275.17 753.15 270.47 753.15 236.89"/><polygon id="_路径_106" data-name="&lt;路径&gt;" class="cls-22" points="683.02 236.89 678.08 241.58 748.21 241.58 753.15 236.89 683.02 236.89"/><g id="_编组_48" data-name="&lt;编组&gt;"><path id="_复合路径_29" data-name="&lt;复合路径&gt;" class="cls-20" d="M828,275.17H757.89V241.58H828Z"/></g><polygon id="_路径_107" data-name="&lt;路径&gt;" class="cls-21" points="832.96 236.89 828.02 241.58 828.02 275.17 832.96 270.47 832.96 236.89"/><polygon id="_路径_108" data-name="&lt;路径&gt;" class="cls-22" points="762.83 236.89 757.89 241.58 828.02 241.58 832.96 236.89 762.83 236.89"/><g id="_编组_49" data-name="&lt;编组&gt;"><path id="_复合路径_30" data-name="&lt;复合路径&gt;" class="cls-20" d="M907.84,275.17H837.71V241.58h70.13Z"/></g><polygon id="_路径_109" data-name="&lt;路径&gt;" class="cls-21" points="912.78 236.89 907.84 241.58 907.84 275.17 912.78 270.47 912.78 236.89"/><polygon id="_路径_110" data-name="&lt;路径&gt;" class="cls-22" points="842.65 236.89 837.71 241.58 907.84 241.58 912.78 236.89 842.65 236.89"/></g><g id="_编组_50" data-name="&lt;编组&gt;"><g id="_编组_51" data-name="&lt;编组&gt;"><path id="_复合路径_31" data-name="&lt;复合路径&gt;" class="cls-20" d="M723.34,221H671.93V187.43h51.41Z"/></g><polygon id="_路径_111" data-name="&lt;路径&gt;" class="cls-21" points="728.28 182.73 723.34 187.43 723.34 221.01 728.28 216.32 728.28 182.73"/><polygon id="_路径_112" data-name="&lt;路径&gt;" class="cls-22" points="676.87 182.73 671.93 187.43 723.34 187.43 728.28 182.73 676.87 182.73"/><g id="_编组_52" data-name="&lt;编组&gt;"><path id="_复合路径_32" data-name="&lt;复合路径&gt;" class="cls-20" d="M782.79,221H731.38V187.43h51.41Z"/></g><polygon id="_路径_113" data-name="&lt;路径&gt;" class="cls-21" points="787.73 182.73 782.79 187.43 782.79 221.01 787.73 216.32 787.73 182.73"/><polygon id="_路径_114" data-name="&lt;路径&gt;" class="cls-22" points="736.32 182.73 731.38 187.43 782.79 187.43 787.73 182.73 736.32 182.73"/><g id="_编组_53" data-name="&lt;编组&gt;"><path id="_复合路径_33" data-name="&lt;复合路径&gt;" class="cls-20" d="M842.24,221H790.83V187.43h51.41Z"/></g><polygon id="_路径_115" data-name="&lt;路径&gt;" class="cls-21" points="847.18 182.73 842.24 187.43 842.24 221.01 847.18 216.32 847.18 182.73"/><polygon id="_路径_116" data-name="&lt;路径&gt;" class="cls-22" points="795.76 182.73 790.83 187.43 842.24 187.43 847.18 182.73 795.76 182.73"/><g id="_编组_54" data-name="&lt;编组&gt;"><path id="_复合路径_34" data-name="&lt;复合路径&gt;" class="cls-20" d="M901.69,221H850.27V187.43h51.42Z"/></g><polygon id="_路径_117" data-name="&lt;路径&gt;" class="cls-21" points="906.63 182.73 901.69 187.43 901.69 221.01 906.63 216.32 906.63 182.73"/><polygon id="_路径_118" data-name="&lt;路径&gt;" class="cls-22" points="855.21 182.73 850.27 187.43 901.69 187.43 906.63 182.73 855.21 182.73"/><g id="_编组_55" data-name="&lt;编组&gt;"><path id="_复合路径_35" data-name="&lt;复合路径&gt;" class="cls-20" d="M742.06,281.22H671.93V247.64h70.13Z"/></g><polygon id="_路径_119" data-name="&lt;路径&gt;" class="cls-21" points="747 242.94 742.06 247.64 742.06 281.22 747 276.53 747 242.94"/><polygon id="_路径_120" data-name="&lt;路径&gt;" class="cls-22" points="676.87 242.94 671.93 247.64 742.06 247.64 747 242.94 676.87 242.94"/><g id="_编组_56" data-name="&lt;编组&gt;"><path id="_复合路径_36" data-name="&lt;复合路径&gt;" class="cls-20" d="M821.87,281.22H751.74V247.64h70.13Z"/></g><polygon id="_路径_121" data-name="&lt;路径&gt;" class="cls-21" points="826.81 242.94 821.87 247.64 821.87 281.22 826.81 276.53 826.81 242.94"/><polygon id="_路径_122" data-name="&lt;路径&gt;" class="cls-22" points="756.68 242.94 751.74 247.64 821.87 247.64 826.81 242.94 756.68 242.94"/><g id="_编组_57" data-name="&lt;编组&gt;"><path id="_复合路径_37" data-name="&lt;复合路径&gt;" class="cls-20" d="M901.69,281.22H831.56V247.64h70.13Z"/></g><polygon id="_路径_123" data-name="&lt;路径&gt;" class="cls-21" points="906.63 242.94 901.69 247.64 901.69 281.22 906.63 276.53 906.63 242.94"/><polygon id="_路径_124" data-name="&lt;路径&gt;" class="cls-22" points="836.5 242.94 831.56 247.64 901.69 247.64 906.63 242.94 836.5 242.94"/></g></g><g id="_编组_58" data-name="&lt;编组&gt;"><polygon id="_路径_125" data-name="&lt;路径&gt;" class="cls-18" points="711.34 271.51 711.34 208.85 692.48 226.78 692.48 289.44 711.34 271.51 711.34 271.51"/><polygon id="_路径_126" data-name="&lt;路径&gt;" class="cls-18" points="711.34 279.17 692.48 297.1 692.48 359.76 711.34 341.83 711.34 279.17"/><polygon id="_路径_127" data-name="&lt;路径&gt;" class="cls-14" points="711.34 271.51 692.48 289.44 1001.99 289.44 1020.85 271.51 711.34 271.51"/><polygon id="_路径_128" data-name="&lt;路径&gt;" class="cls-14" points="711.34 341.83 711.34 341.83 692.48 359.76 1001.99 359.76 1020.85 341.83 711.34 341.83"/><g id="_编组_59" data-name="&lt;编组&gt;"><path id="_复合路径_38" data-name="&lt;复合路径&gt;" class="cls-19" d="M1009.07,368.25H684V218.81h325.09Zm-316.59-8.49h308.08V227.3H692.48Z"/></g><polygon id="_路径_129" data-name="&lt;路径&gt;" class="cls-18" points="1030.71 198.23 1009.07 218.81 1009.07 368.25 1030.71 347.67 1030.71 198.23"/><polygon id="_路径_130" data-name="&lt;路径&gt;" class="cls-14" points="705.62 198.23 683.98 218.81 1009.07 218.81 1030.71 198.23 705.62 198.23"/><rect id="_矩形_3" data-name="&lt;矩形&gt;" class="cls-19" x="692.48" y="289.44" width="308.08" height="8.18"/><text class="cls-27" transform="translate(788.04 212) scale(0.9 1)">Investment &amp; Financing</text><g id="_编组_60" data-name="&lt;编组&gt;"><g id="_编组_61" data-name="&lt;编组&gt;"><path id="_复合路径_39" data-name="&lt;复合路径&gt;" class="cls-20" d="M781.22,280.37H721.74V241.51h59.48Z"/></g><polygon id="_路径_131" data-name="&lt;路径&gt;" class="cls-21" points="786.94 236.08 781.22 241.51 781.22 280.37 786.94 274.93 786.94 236.08"/><polygon id="_路径_132" data-name="&lt;路径&gt;" class="cls-22" points="727.46 236.08 721.74 241.51 781.22 241.51 786.94 236.08 727.46 236.08"/><g id="_编组_62" data-name="&lt;编组&gt;"><path id="_复合路径_40" data-name="&lt;复合路径&gt;" class="cls-20" d="M850,280.37H790.52V241.51H850Z"/></g><polygon id="_路径_133" data-name="&lt;路径&gt;" class="cls-21" points="855.71 236.08 850 241.51 850 280.37 855.71 274.93 855.71 236.08"/><polygon id="_路径_134" data-name="&lt;路径&gt;" class="cls-22" points="796.23 236.08 790.52 241.51 850 241.51 855.71 236.08 796.23 236.08"/><g id="_编组_63" data-name="&lt;编组&gt;"><path id="_复合路径_41" data-name="&lt;复合路径&gt;" class="cls-20" d="M918.77,280.37H859.29V241.51h59.48Z"/></g><polygon id="_路径_135" data-name="&lt;路径&gt;" class="cls-21" points="924.49 236.08 918.77 241.51 918.77 280.37 924.49 274.93 924.49 236.08"/><polygon id="_路径_136" data-name="&lt;路径&gt;" class="cls-22" points="865.01 236.08 859.29 241.51 918.77 241.51 924.49 236.08 865.01 236.08"/><g id="_编组_64" data-name="&lt;编组&gt;"><path id="_复合路径_42" data-name="&lt;复合路径&gt;" class="cls-20" d="M987.55,280.37H928.07V241.51h59.48Z"/></g><polygon id="_路径_137" data-name="&lt;路径&gt;" class="cls-21" points="993.26 236.08 987.55 241.51 987.55 280.37 993.26 274.93 993.26 236.08"/><polygon id="_路径_138" data-name="&lt;路径&gt;" class="cls-22" points="933.78 236.08 928.07 241.51 987.55 241.51 993.26 236.08 933.78 236.08"/><g id="_编组_65" data-name="&lt;编组&gt;"><path id="_复合路径_43" data-name="&lt;复合路径&gt;" class="cls-20" d="M802.87,350H721.74V311.17h81.13Z"/></g><polygon id="_路径_139" data-name="&lt;路径&gt;" class="cls-21" points="808.59 305.74 802.87 311.17 802.87 350.02 808.59 344.59 808.59 305.74"/><polygon id="_路径_140" data-name="&lt;路径&gt;" class="cls-22" points="727.46 305.74 721.74 311.17 802.87 311.17 808.59 305.74 727.46 305.74"/><g id="_编组_66" data-name="&lt;编组&gt;"><path id="_复合路径_44" data-name="&lt;复合路径&gt;" class="cls-20" d="M895.21,350H814.08V311.17h81.13Z"/></g><polygon id="_路径_141" data-name="&lt;路径&gt;" class="cls-21" points="900.93 305.74 895.21 311.17 895.21 350.02 900.93 344.59 900.93 305.74"/><polygon id="_路径_142" data-name="&lt;路径&gt;" class="cls-22" points="819.8 305.74 814.08 311.17 895.21 311.17 900.93 305.74 819.8 305.74"/><g id="_编组_67" data-name="&lt;编组&gt;"><path id="_复合路径_45" data-name="&lt;复合路径&gt;" class="cls-20" d="M987.55,350H906.42V311.17h81.13Z"/></g><polygon id="_路径_143" data-name="&lt;路径&gt;" class="cls-21" points="993.26 305.74 987.55 311.17 987.55 350.02 993.26 344.59 993.26 305.74"/><polygon id="_路径_144" data-name="&lt;路径&gt;" class="cls-22" points="912.13 305.74 906.42 311.17 987.55 311.17 993.26 305.74 912.13 305.74"/></g><g id="_编组_68" data-name="&lt;编组&gt;"><g id="_编组_69" data-name="&lt;编组&gt;"><path id="_复合路径_46" data-name="&lt;复合路径&gt;" class="cls-20" d="M774.11,287.37H714.63V248.52h59.48Z"/></g><polygon id="_路径_145" data-name="&lt;路径&gt;" class="cls-21" points="779.82 243.08 774.11 248.52 774.11 287.37 779.82 281.94 779.82 243.08"/><polygon id="_路径_146" data-name="&lt;路径&gt;" class="cls-22" points="720.34 243.08 714.63 248.52 774.11 248.52 779.82 243.08 720.34 243.08"/><g id="_编组_70" data-name="&lt;编组&gt;"><path id="_复合路径_47" data-name="&lt;复合路径&gt;" class="cls-20" d="M842.88,287.37H783.4V248.52h59.48Z"/></g><polygon id="_路径_147" data-name="&lt;路径&gt;" class="cls-21" points="848.6 243.08 842.88 248.52 842.88 287.37 848.6 281.94 848.6 243.08"/><polygon id="_路径_148" data-name="&lt;路径&gt;" class="cls-22" points="789.12 243.08 783.4 248.52 842.88 248.52 848.6 243.08 789.12 243.08"/><g id="_编组_71" data-name="&lt;编组&gt;"><path id="_复合路径_48" data-name="&lt;复合路径&gt;" class="cls-20" d="M911.66,287.37H852.18V248.52h59.48Z"/></g><polygon id="_路径_149" data-name="&lt;路径&gt;" class="cls-21" points="917.37 243.08 911.66 248.52 911.66 287.37 917.37 281.94 917.37 243.08"/><polygon id="_路径_150" data-name="&lt;路径&gt;" class="cls-22" points="857.89 243.08 852.18 248.52 911.66 248.52 917.37 243.08 857.89 243.08"/><g id="_编组_72" data-name="&lt;编组&gt;"><path id="_复合路径_49" data-name="&lt;复合路径&gt;" class="cls-20" d="M980.43,287.37H921V248.52h59.48Z"/></g><polygon id="_路径_151" data-name="&lt;路径&gt;" class="cls-21" points="986.15 243.08 980.43 248.52 980.43 287.37 986.15 281.94 986.15 243.08"/><polygon id="_路径_152" data-name="&lt;路径&gt;" class="cls-22" points="926.67 243.08 920.95 248.52 980.43 248.52 986.15 243.08 926.67 243.08"/><g id="_编组_73" data-name="&lt;编组&gt;"><path id="_复合路径_50" data-name="&lt;复合路径&gt;" class="cls-20" d="M795.76,357H714.63V318.17h81.13Z"/></g><polygon id="_路径_153" data-name="&lt;路径&gt;" class="cls-21" points="801.47 312.74 795.76 318.17 795.76 357.02 801.47 351.59 801.47 312.74"/><polygon id="_路径_154" data-name="&lt;路径&gt;" class="cls-22" points="720.34 312.74 714.63 318.17 795.76 318.17 801.47 312.74 720.34 312.74"/><g id="_编组_74" data-name="&lt;编组&gt;"><path id="_复合路径_51" data-name="&lt;复合路径&gt;" class="cls-20" d="M888.1,357H807V318.17H888.1Z"/></g><polygon id="_路径_155" data-name="&lt;路径&gt;" class="cls-21" points="893.81 312.74 888.1 318.17 888.1 357.02 893.81 351.59 893.81 312.74"/><polygon id="_路径_156" data-name="&lt;路径&gt;" class="cls-22" points="812.68 312.74 806.97 318.17 888.1 318.17 893.81 312.74 812.68 312.74"/><g id="_编组_75" data-name="&lt;编组&gt;"><path id="_复合路径_52" data-name="&lt;复合路径&gt;" class="cls-20" d="M980.43,357H899.3V318.17h81.13Z"/></g><polygon id="_路径_157" data-name="&lt;路径&gt;" class="cls-21" points="986.15 312.74 980.43 318.17 980.43 357.02 986.15 351.59 986.15 312.74"/><polygon id="_路径_158" data-name="&lt;路径&gt;" class="cls-22" points="905.02 312.74 899.3 318.17 980.43 318.17 986.15 312.74 905.02 312.74"/><text class="cls-28" transform="translate(740.65 335.2) scale(0.9 1)">Asset<tspan x="-21.56" y="10.77">Management</tspan></text><text class="cls-28" transform="translate(818.75 341.54) scale(0.9 1)">Exchanges</text><text class="cls-28" transform="translate(922.41 335.2) scale(0.9 1)">Money<tspan x="-5.38" y="10.77">Services</tspan></text><text class="cls-28" transform="translate(728.2 271.18) scale(0.9 1)">Funds</text><text class="cls-28" transform="translate(787.28 271.18) scale(0.9 1)">Payments</text><text class="cls-28" transform="translate(855.08 271.18) scale(0.9 1)">Brokerage</text><text class="cls-28" transform="translate(929.99 271.18) scale(0.9 1)">Lending</text></g></g><g id="_编组_76" data-name="&lt;编组&gt;"><polygon id="_路径_159" data-name="&lt;路径&gt;" class="cls-24" points="523.79 362.73 523.79 300.07 504.93 318 504.93 380.66 523.79 362.73 523.79 362.73"/><polygon id="_路径_160" data-name="&lt;路径&gt;" class="cls-24" points="523.79 370.39 504.93 388.32 504.93 450.98 523.79 433.05 523.79 370.39"/><polygon id="_路径_161" data-name="&lt;路径&gt;" class="cls-25" points="523.79 362.73 504.93 380.66 814.43 380.66 833.29 362.73 523.79 362.73"/><polygon id="_路径_162" data-name="&lt;路径&gt;" class="cls-25" points="523.79 433.05 523.79 433.05 504.93 450.98 814.43 450.98 833.29 433.05 523.79 433.05"/><g id="_编组_77" data-name="&lt;编组&gt;"><path id="_复合路径_53" data-name="&lt;复合路径&gt;" class="cls-26" d="M821.51,459.47H496.42V310H821.51ZM504.93,451H813V318.52H504.93Z"/></g><polygon id="_路径_163" data-name="&lt;路径&gt;" class="cls-24" points="843.16 289.45 821.51 310.03 821.51 459.47 843.16 438.89 843.16 289.45"/><polygon id="_路径_164" data-name="&lt;路径&gt;" class="cls-25" points="518.06 289.45 496.42 310.03 821.51 310.03 843.16 289.45 518.06 289.45"/><rect id="_矩形_4" data-name="&lt;矩形&gt;" class="cls-26" x="504.93" y="380.66" width="308.08" height="8.18"/><text class="cls-27" transform="translate(606.15 303.22) scale(0.9 1)">Professional Services</text><g id="_编组_78" data-name="&lt;编组&gt;"><g id="_编组_79" data-name="&lt;编组&gt;"><path id="_复合路径_54" data-name="&lt;复合路径&gt;" class="cls-20" d="M593.67,371.59H534.19V332.73h59.48Z"/></g><polygon id="_路径_165" data-name="&lt;路径&gt;" class="cls-21" points="599.38 327.3 593.67 332.74 593.67 371.59 599.38 366.16 599.38 327.3"/><polygon id="_路径_166" data-name="&lt;路径&gt;" class="cls-22" points="539.9 327.3 534.18 332.74 593.67 332.74 599.38 327.3 539.9 327.3"/><g id="_编组_80" data-name="&lt;编组&gt;"><path id="_复合路径_55" data-name="&lt;复合路径&gt;" class="cls-20" d="M662.44,371.59H603V332.73h59.48Z"/></g><polygon id="_路径_167" data-name="&lt;路径&gt;" class="cls-21" points="668.15 327.3 662.44 332.74 662.44 371.59 668.15 366.16 668.15 327.3"/><polygon id="_路径_168" data-name="&lt;路径&gt;" class="cls-22" points="608.67 327.3 602.96 332.74 662.44 332.74 668.16 327.3 608.67 327.3"/><g id="_编组_81" data-name="&lt;编组&gt;"><path id="_复合路径_56" data-name="&lt;复合路径&gt;" class="cls-20" d="M731.22,371.59H671.74V332.73h59.48Z"/></g><polygon id="_路径_169" data-name="&lt;路径&gt;" class="cls-21" points="736.93 327.3 731.22 332.74 731.22 371.59 736.93 366.16 736.93 327.3"/><polygon id="_路径_170" data-name="&lt;路径&gt;" class="cls-22" points="677.45 327.3 671.74 332.74 731.22 332.74 736.93 327.3 677.45 327.3"/><g id="_编组_82" data-name="&lt;编组&gt;"><path id="_复合路径_57" data-name="&lt;复合路径&gt;" class="cls-20" d="M800,371.59H740.51V332.73H800Z"/></g><polygon id="_路径_171" data-name="&lt;路径&gt;" class="cls-21" points="805.71 327.3 799.99 332.74 799.99 371.59 805.71 366.16 805.71 327.3"/><polygon id="_路径_172" data-name="&lt;路径&gt;" class="cls-22" points="746.23 327.3 740.51 332.74 799.99 332.74 805.71 327.3 746.23 327.3"/><g id="_编组_83" data-name="&lt;编组&gt;"><path id="_复合路径_58" data-name="&lt;复合路径&gt;" class="cls-20" d="M615.32,441.24H534.19V402.39h81.13Z"/></g><polygon id="_路径_173" data-name="&lt;路径&gt;" class="cls-21" points="621.03 396.96 615.32 402.39 615.32 441.24 621.03 435.81 621.03 396.96"/><polygon id="_路径_174" data-name="&lt;路径&gt;" class="cls-22" points="539.9 396.96 534.18 402.39 615.32 402.39 621.03 396.96 539.9 396.96"/><g id="_编组_84" data-name="&lt;编组&gt;"><path id="_复合路径_59" data-name="&lt;复合路径&gt;" class="cls-20" d="M707.65,441.24H626.52V402.39h81.13Z"/></g><polygon id="_路径_175" data-name="&lt;路径&gt;" class="cls-21" points="713.37 396.96 707.65 402.39 707.65 441.24 713.37 435.81 713.37 396.96"/><polygon id="_路径_176" data-name="&lt;路径&gt;" class="cls-22" points="632.24 396.96 626.52 402.39 707.65 402.39 713.37 396.96 632.24 396.96"/><g id="_编组_85" data-name="&lt;编组&gt;"><path id="_复合路径_60" data-name="&lt;复合路径&gt;" class="cls-20" d="M800,441.24H718.86V402.39H800Z"/></g><polygon id="_路径_177" data-name="&lt;路径&gt;" class="cls-21" points="805.71 396.96 799.99 402.39 799.99 441.24 805.71 435.81 805.71 396.96"/><polygon id="_路径_178" data-name="&lt;路径&gt;" class="cls-22" points="724.58 396.96 718.86 402.39 799.99 402.39 805.71 396.96 724.58 396.96"/></g><g id="_编组_86" data-name="&lt;编组&gt;"><g id="_编组_87" data-name="&lt;编组&gt;"><path id="_复合路径_61" data-name="&lt;复合路径&gt;" class="cls-20" d="M586.55,378.59H527.07V339.74h59.48Z"/></g><polygon id="_路径_179" data-name="&lt;路径&gt;" class="cls-21" points="592.26 334.31 586.55 339.74 586.55 378.59 592.26 373.16 592.26 334.31"/><polygon id="_路径_180" data-name="&lt;路径&gt;" class="cls-22" points="532.78 334.31 527.07 339.74 586.55 339.74 592.26 334.31 532.78 334.31"/><g id="_编组_88" data-name="&lt;编组&gt;"><path id="_复合路径_62" data-name="&lt;复合路径&gt;" class="cls-20" d="M655.33,378.59H595.85V339.74h59.48Z"/></g><polygon id="_路径_181" data-name="&lt;路径&gt;" class="cls-21" points="661.04 334.31 655.33 339.74 655.33 378.59 661.04 373.16 661.04 334.31"/><polygon id="_路径_182" data-name="&lt;路径&gt;" class="cls-22" points="601.56 334.31 595.85 339.74 655.33 339.74 661.04 334.31 601.56 334.31"/><g id="_编组_89" data-name="&lt;编组&gt;"><path id="_复合路径_63" data-name="&lt;复合路径&gt;" class="cls-20" d="M724.1,378.59H664.62V339.74H724.1Z"/></g><polygon id="_路径_183" data-name="&lt;路径&gt;" class="cls-21" points="729.82 334.31 724.1 339.74 724.1 378.59 729.82 373.16 729.82 334.31"/><polygon id="_路径_184" data-name="&lt;路径&gt;" class="cls-22" points="670.34 334.31 664.62 339.74 724.1 339.74 729.82 334.31 670.34 334.31"/><g id="_编组_90" data-name="&lt;编组&gt;"><path id="_复合路径_64" data-name="&lt;复合路径&gt;" class="cls-20" d="M792.88,378.59H733.4V339.74h59.48Z"/></g><polygon id="_路径_185" data-name="&lt;路径&gt;" class="cls-21" points="798.59 334.31 792.88 339.74 792.88 378.59 798.59 373.16 798.59 334.31"/><polygon id="_路径_186" data-name="&lt;路径&gt;" class="cls-22" points="739.11 334.31 733.39 339.74 792.88 339.74 798.59 334.31 739.11 334.31"/><g id="_编组_91" data-name="&lt;编组&gt;"><path id="_复合路径_65" data-name="&lt;复合路径&gt;" class="cls-20" d="M608.2,448.25H527.07V409.39H608.2Z"/></g><polygon id="_路径_187" data-name="&lt;路径&gt;" class="cls-21" points="613.91 403.96 608.2 409.39 608.2 448.25 613.91 442.81 613.91 403.96"/><polygon id="_路径_188" data-name="&lt;路径&gt;" class="cls-22" points="532.78 403.96 527.07 409.39 608.2 409.39 613.91 403.96 532.78 403.96"/><g id="_编组_92" data-name="&lt;编组&gt;"><path id="_复合路径_66" data-name="&lt;复合路径&gt;" class="cls-20" d="M700.54,448.25H619.41V409.39h81.13Z"/></g><polygon id="_路径_189" data-name="&lt;路径&gt;" class="cls-21" points="706.25 403.96 700.54 409.39 700.54 448.25 706.25 442.81 706.25 403.96"/><polygon id="_路径_190" data-name="&lt;路径&gt;" class="cls-22" points="625.12 403.96 619.41 409.39 700.54 409.39 706.25 403.96 625.12 403.96"/><g id="_编组_93" data-name="&lt;编组&gt;"><path id="_复合路径_67" data-name="&lt;复合路径&gt;" class="cls-20" d="M792.88,448.25H711.75V409.39h81.13Z"/></g><polygon id="_路径_191" data-name="&lt;路径&gt;" class="cls-21" points="798.59 403.96 792.88 409.39 792.88 448.25 798.59 442.81 798.59 403.96"/><polygon id="_路径_192" data-name="&lt;路径&gt;" class="cls-22" points="717.46 403.96 711.75 409.39 792.88 409.39 798.59 403.96 717.46 403.96"/><text class="cls-28" transform="translate(544.36 426.42) scale(0.9 1)">Financial<tspan x="1.08" y="10.77">Advisory</tspan></text><text class="cls-28" transform="translate(636.15 426.42) scale(0.9 1)"><tspan class="cls-29">V</tspan><tspan x="7.66" y="0">aluation</tspan><tspan x="4.92" y="10.77">Service</tspan></text><text class="cls-28" transform="translate(741.64 426.42) scale(0.9 1)">Due<tspan x="-14.73" y="10.77">Diligence</tspan></text><text class="cls-28" transform="translate(542.58 357.11) scale(0.9 1)">Legal<tspan x="-14.73" y="10.77">Consulting</tspan></text><text class="cls-28" transform="translate(616.53 357.11) scale(0.9 1)"><tspan class="cls-30">T</tspan><tspan x="6.46" y="0">ax</tspan><tspan x="-14.73" y="10.77">Advisory</tspan></text><text class="cls-28" transform="translate(666.23 357.11) scale(0.9 1)">Automated<tspan x="16.53" y="10.77">Audit</tspan></text><text class="cls-28" transform="translate(751.82 357.11) scale(0.9 1)">Risk<tspan x="-6.12" y="10.77">Rating</tspan></text></g></g><g id="_编组_94" data-name="&lt;编组&gt;"><polygon id="_路径_193" data-name="&lt;路径&gt;" class="cls-18" points="613.42 521.82 613.42 459.16 594.57 477.09 594.57 539.75 613.42 521.82 613.42 521.82"/><polygon id="_路径_194" data-name="&lt;路径&gt;" class="cls-18" points="613.42 529.49 594.57 547.42 594.57 610.08 613.42 592.15 613.42 529.49"/><polygon id="_路径_195" data-name="&lt;路径&gt;" class="cls-14" points="613.42 521.82 594.57 539.75 904.07 539.75 922.93 521.82 613.42 521.82"/><polygon id="_路径_196" data-name="&lt;路径&gt;" class="cls-14" points="613.42 592.15 613.42 592.15 594.57 610.08 904.07 610.08 922.93 592.15 613.42 592.15"/><g id="_编组_95" data-name="&lt;编组&gt;"><path id="_复合路径_68" data-name="&lt;复合路径&gt;" class="cls-19" d="M911.15,618.57H586.06V469.12H911.15Zm-316.59-8.49H902.64V477.61H594.56Z"/></g><polygon id="_路径_197" data-name="&lt;路径&gt;" class="cls-18" points="932.8 448.55 911.15 469.12 911.15 618.57 932.8 597.99 932.8 448.55"/><polygon id="_路径_198" data-name="&lt;路径&gt;" class="cls-14" points="607.7 448.55 586.06 469.12 911.15 469.12 932.8 448.55 607.7 448.55"/><rect id="_矩形_5" data-name="&lt;矩形&gt;" class="cls-19" x="594.56" y="539.75" width="308.08" height="8.18"/><text class="cls-27" transform="translate(692.02 462.32) scale(0.9 1)">Marketing &amp; Promotion</text><g id="_编组_96" data-name="&lt;编组&gt;"><g id="_编组_97" data-name="&lt;编组&gt;"><path id="_复合路径_69" data-name="&lt;复合路径&gt;" class="cls-20" d="M705,530.78H623.82V491.92H705Z"/></g><polygon id="_路径_199" data-name="&lt;路径&gt;" class="cls-21" points="710.67 486.49 704.96 491.92 704.96 530.77 710.67 525.34 710.67 486.49"/><polygon id="_路径_200" data-name="&lt;路径&gt;" class="cls-22" points="629.54 486.49 623.83 491.92 704.96 491.92 710.67 486.49 629.54 486.49"/><g id="_编组_98" data-name="&lt;编组&gt;"><path id="_复合路径_70" data-name="&lt;复合路径&gt;" class="cls-20" d="M797.29,530.78H716.16V491.92h81.13Z"/></g><polygon id="_路径_201" data-name="&lt;路径&gt;" class="cls-21" points="803.01 486.49 797.29 491.92 797.29 530.77 803.01 525.34 803.01 486.49"/><polygon id="_路径_202" data-name="&lt;路径&gt;" class="cls-22" points="721.88 486.49 716.16 491.92 797.29 491.92 803.01 486.49 721.88 486.49"/><g id="_编组_99" data-name="&lt;编组&gt;"><path id="_复合路径_71" data-name="&lt;复合路径&gt;" class="cls-20" d="M889.63,530.78H808.5V491.92h81.13Z"/></g><polygon id="_路径_203" data-name="&lt;路径&gt;" class="cls-21" points="895.35 486.49 889.63 491.92 889.63 530.77 895.35 525.34 895.35 486.49"/><polygon id="_路径_204" data-name="&lt;路径&gt;" class="cls-22" points="814.22 486.49 808.5 491.92 889.63 491.92 895.35 486.49 814.22 486.49"/><g id="_编组_100" data-name="&lt;编组&gt;"><path id="_复合路径_72" data-name="&lt;复合路径&gt;" class="cls-20" d="M705,600.43H623.82V561.58H705Z"/></g><polygon id="_路径_205" data-name="&lt;路径&gt;" class="cls-21" points="710.67 556.14 704.96 561.58 704.96 600.43 710.67 595 710.67 556.14"/><polygon id="_路径_206" data-name="&lt;路径&gt;" class="cls-22" points="629.54 556.14 623.83 561.58 704.96 561.58 710.67 556.14 629.54 556.14"/><g id="_编组_101" data-name="&lt;编组&gt;"><path id="_复合路径_73" data-name="&lt;复合路径&gt;" class="cls-20" d="M797.29,600.43H716.16V561.58h81.13Z"/></g><polygon id="_路径_207" data-name="&lt;路径&gt;" class="cls-21" points="803.01 556.14 797.29 561.58 797.29 600.43 803.01 595 803.01 556.14"/><polygon id="_路径_208" data-name="&lt;路径&gt;" class="cls-22" points="721.88 556.14 716.16 561.58 797.29 561.58 803.01 556.14 721.88 556.14"/><g id="_编组_102" data-name="&lt;编组&gt;"><path id="_复合路径_74" data-name="&lt;复合路径&gt;" class="cls-20" d="M889.63,600.43H808.5V561.58h81.13Z"/></g><polygon id="_路径_209" data-name="&lt;路径&gt;" class="cls-21" points="895.35 556.14 889.63 561.58 889.63 600.43 895.35 595 895.35 556.14"/><polygon id="_路径_210" data-name="&lt;路径&gt;" class="cls-22" points="814.22 556.14 808.5 561.58 889.63 561.58 895.35 556.14 814.22 556.14"/></g><g id="_编组_103" data-name="&lt;编组&gt;"><g id="_编组_104" data-name="&lt;编组&gt;"><path id="_复合路径_75" data-name="&lt;复合路径&gt;" class="cls-20" d="M697.84,537.69H616.71V498.83h81.13Z"/></g><text class="cls-28" transform="translate(641.43 516.21) scale(0.9 1)">Public<tspan x="-17.97" y="10.77">Relationship</tspan></text><polygon id="_路径_211" data-name="&lt;路径&gt;" class="cls-21" points="703.55 493.4 697.84 498.83 697.84 537.69 703.55 532.25 703.55 493.4"/><polygon id="_路径_212" data-name="&lt;路径&gt;" class="cls-22" points="622.42 493.4 616.71 498.83 697.84 498.83 703.55 493.4 622.42 493.4"/><g id="_编组_105" data-name="&lt;编组&gt;"><path id="_复合路径_76" data-name="&lt;复合路径&gt;" class="cls-20" d="M790.18,537.69H709.05V498.83h81.13Z"/></g><polygon id="_路径_213" data-name="&lt;路径&gt;" class="cls-21" points="795.89 493.4 790.18 498.83 790.18 537.69 795.89 532.25 795.89 493.4"/><polygon id="_路径_214" data-name="&lt;路径&gt;" class="cls-22" points="714.76 493.4 709.05 498.83 790.18 498.83 795.89 493.4 714.76 493.4"/><g id="_编组_106" data-name="&lt;编组&gt;"><path id="_复合路径_77" data-name="&lt;复合路径&gt;" class="cls-20" d="M882.52,537.69H801.39V498.83h81.13Z"/></g><polygon id="_路径_215" data-name="&lt;路径&gt;" class="cls-21" points="888.23 493.4 882.51 498.83 882.51 537.69 888.23 532.25 888.23 493.4"/><polygon id="_路径_216" data-name="&lt;路径&gt;" class="cls-22" points="807.1 493.4 801.38 498.83 882.51 498.83 888.23 493.4 807.1 493.4"/><g id="_编组_107" data-name="&lt;编组&gt;"><path id="_复合路径_78" data-name="&lt;复合路径&gt;" class="cls-20" d="M697.84,607.34H616.71V568.49h81.13Z"/></g><polygon id="_路径_217" data-name="&lt;路径&gt;" class="cls-21" points="703.55 563.05 697.84 568.49 697.84 607.34 703.55 601.91 703.55 563.05"/><polygon id="_路径_218" data-name="&lt;路径&gt;" class="cls-22" points="622.42 563.05 616.71 568.49 697.84 568.49 703.55 563.05 622.42 563.05"/><g id="_编组_108" data-name="&lt;编组&gt;"><path id="_复合路径_79" data-name="&lt;复合路径&gt;" class="cls-20" d="M790.18,607.34H709.05V568.49h81.13Z"/></g><polygon id="_路径_219" data-name="&lt;路径&gt;" class="cls-21" points="795.89 563.05 790.18 568.49 790.18 607.34 795.89 601.91 795.89 563.05"/><polygon id="_路径_220" data-name="&lt;路径&gt;" class="cls-22" points="714.76 563.05 709.05 568.49 790.18 568.49 795.89 563.05 714.76 563.05"/><g id="_编组_109" data-name="&lt;编组&gt;"><path id="_复合路径_80" data-name="&lt;复合路径&gt;" class="cls-20" d="M882.52,607.34H801.39V568.49h81.13Z"/></g><polygon id="_路径_221" data-name="&lt;路径&gt;" class="cls-21" points="888.23 563.05 882.51 568.49 882.51 607.34 888.23 601.91 888.23 563.05"/><polygon id="_路径_222" data-name="&lt;路径&gt;" class="cls-22" points="807.1 563.05 801.38 568.49 882.51 568.49 888.23 563.05 807.1 563.05"/><text class="cls-28" transform="translate(724.07 521.62) scale(0.9 1)">Marketing</text><text class="cls-28" transform="translate(818.66 521.62) scale(0.9 1)">Branding</text><text class="cls-28" transform="translate(642.4 585.52) scale(0.9 1)">Client<tspan x="-21.2" y="10.77">Management</tspan></text><text class="cls-28" transform="translate(720.84 590.93) scale(0.9 1)">Advertising</text><text class="cls-28" transform="translate(824.17 585.52) scale(0.9 1)">Market<tspan x="-9.71" y="10.77">Campaign</tspan></text></g></g><g id="_编组_110" data-name="&lt;编组&gt;"><text class="cls-7" transform="translate(941.66 440.85)">Investor</text></g></g></g></svg>