<svg xmlns="http://www.w3.org/2000/svg" xmlns:xlink="http://www.w3.org/1999/xlink" viewBox="0 0 156.78 180.49"><defs><style>.cls-1,.cls-2{fill:none;}.cls-1{stroke:#f3b12d;}.cls-1,.cls-2,.cls-3{stroke-linecap:round;stroke-linejoin:round;}.cls-2,.cls-3{stroke:#00c3ff;}.cls-4{fill:url(#未命名的渐变_43);}</style><linearGradient id="未命名的渐变_43" x1="83.78" y1="137.28" x2="83.78" y2="40.09" gradientUnits="userSpaceOnUse"><stop offset="0.01" stop-color="#00c3ff"/><stop offset="0.21" stop-color="#00bffb"/><stop offset="0.42" stop-color="#00b2ef"/><stop offset="0.64" stop-color="#009edb"/><stop offset="0.85" stop-color="#0081bf"/><stop offset="1" stop-color="#0068a7"/></linearGradient></defs><title>资源 31</title><g id="图层_2" data-name="图层 2"><g id="图层_1-2" data-name="图层 1"><g id="_编组_" data-name="&lt;编组&gt;"><g id="_编组_2" data-name="&lt;编组&gt;"><polygon id="_路径_" data-name="&lt;路径&gt;" class="cls-1" points="78.39 167.82 11.05 129.16 11.05 51.28 0.5 45.19 0.5 135.28 0.5 135.28 0.5 135.28 78.39 179.99 78.39 167.82"/><polygon id="_路径_2" data-name="&lt;路径&gt;" class="cls-1" points="145.74 51.28 145.74 129.16 78.39 167.82 78.39 179.99 145.74 141.34 145.74 141.37 156.28 135.28 156.28 135.28 156.28 123.11 156.28 45.19 145.74 51.28"/><polygon id="_路径_3" data-name="&lt;路径&gt;" class="cls-1" points="78.39 12.68 11.05 51.28 11.05 129.19 21.59 123.11 21.59 57.42 78.39 24.82 78.39 12.68"/><polygon id="_路径_4" data-name="&lt;路径&gt;" class="cls-1" points="78.39 12.68 11.05 51.28 11.05 129.19 21.59 123.11 21.59 57.42 78.39 24.82 78.39 12.68"/><polyline id="_路径_5" data-name="&lt;路径&gt;" class="cls-1" points="102.56 38.69 135.19 57.42 135.19 123.11 145.74 129.19 145.74 63.47 145.74 63.47 145.74 51.34 145.74 51.33 145.74 51.28 78.39 12.68 78.39 24.82 81.5 26.6"/><polygon id="_路径_6" data-name="&lt;路径&gt;" class="cls-1" points="145.74 51.28 156.27 45.2 78.39 0.5 78.39 12.68 145.7 51.31 145.74 51.28"/><g id="_编组_3" data-name="&lt;编组&gt;"><polygon id="_路径_7" data-name="&lt;路径&gt;" class="cls-1" points="135.19 123.11 78.39 155.68 65.08 148.05 21.52 123.11 11.05 129.16 78.39 167.82 78.39 167.82 78.39 167.82 145.74 129.19 135.19 123.11"/></g><polygon id="_路径_8" data-name="&lt;路径&gt;" class="cls-1" points="0.52 45.2 11.05 51.28 11.06 51.32 78.39 12.68 78.39 0.5 0.52 45.2"/></g><g id="_编组_4" data-name="&lt;编组&gt;"><path id="_复合路径_" data-name="&lt;复合路径&gt;" class="cls-2" d="M78.39,128,92.2,120.1l10.54,6.09-37.92,21.7-10.6-6.09,13.4-7.65"/></g><g id="_编组_5" data-name="&lt;编组&gt;"><path id="_复合路径_2" data-name="&lt;复合路径&gt;" class="cls-2" d="M67.6,134.12V58.39l10.55-6.46v88.28Z"/></g><g id="_编组_6" data-name="&lt;编组&gt;"><path id="_复合路径_3" data-name="&lt;复合路径&gt;" class="cls-2" d="M102.58,26.55,65.31,48.26,54.76,42.17,92,20.46Z"/></g><polygon id="_路径_9" data-name="&lt;路径&gt;" class="cls-2" points="54.76 54.34 54.76 42.17 65.31 48.26 65.31 60.43 54.76 54.34"/><polygon id="_路径_10" data-name="&lt;路径&gt;" class="cls-3" points="88.69 134.23 88.69 46.81 102.53 38.75 102.53 26.57 65.31 48.26 65.31 60.43 78.15 52.95 78.15 140.26 64.82 147.89 75.38 153.94 102.74 138.36 102.74 126.19 88.69 134.23"/><polygon id="_路径_11" data-name="&lt;路径&gt;" class="cls-4" points="88.69 134.23 88.69 46.81 102.53 38.75 102.53 26.57 65.31 48.26 65.31 60.43 78.15 52.95 78.15 140.26 64.82 147.89 75.38 153.94 102.74 138.36 102.74 126.19 88.69 134.23"/></g></g></g></svg>