<svg xmlns="http://www.w3.org/2000/svg" viewBox="0 0 45.54 45.54"><defs><style>.cls-1{fill:#f3b12d;}</style></defs><title>资源 52</title><g id="图层_2" data-name="图层 2"><g id="图层_1-2" data-name="图层 1"><rect id="_矩形_" data-name="&lt;矩形&gt;" class="cls-1" width="45.54" height="45.54"/><g id="_编组_" data-name="&lt;编组&gt;"><path id="_路径_" data-name="&lt;路径&gt;" d="M30,11.44a11.55,11.55,0,0,1-6.61,10.42l-1.36.64,10.86,23h3.32L26,23.87a14.6,14.6,0,0,0,5.63-6.28c0,.28,0,.57,0,.86a13.92,13.92,0,0,0,13.9,13.9v-3a10.9,10.9,0,0,1,0-21.79v-3A13.92,13.92,0,0,0,33,12.43c0-.33,0-.66,0-1A14.5,14.5,0,0,0,27.46,0H19.81A11.52,11.52,0,0,1,30,11.44Z"/><path id="_路径_2" data-name="&lt;路径&gt;" d="M20.37,35.43A13.19,13.19,0,0,0,10.25,22.62V0h-3V22.26H0v3H7.2a10.16,10.16,0,0,1,1,20.27h7.4A13.14,13.14,0,0,0,20.37,35.43Z"/></g></g></g></svg>