<svg xmlns="http://www.w3.org/2000/svg" xmlns:xlink="http://www.w3.org/1999/xlink" viewBox="0 0 594.78 549.25"><defs><style>.cls-1{fill:none;stroke:#00c3ff;}.cls-1,.cls-10,.cls-5{stroke-miterlimit:10;}.cls-2,.cls-6,.cls-7,.cls-9{opacity:0.3;}.cls-2{fill:url(#未命名的渐变_46);}.cls-11,.cls-3{font-size:20.42px;fill:#fff;}.cls-3{font-family:ArialMT, Arial;}.cls-4{letter-spacing:-0.06em;}.cls-5{fill:#282828;}.cls-10,.cls-5{stroke:#fff;}.cls-6{fill:url(#未命名的渐变_49);}.cls-7{fill:url(#未命名的渐变_49-2);}.cls-8{fill:#f3b12d;}.cls-9{fill:url(#未命名的渐变_46-2);}.cls-10{fill:#141414;}.cls-11{font-family:Arial-BoldMT, Arial;font-weight:700;}.cls-12{fill:#00c3ff;}</style><linearGradient id="未命名的渐变_46" x1="65.84" y1="285.87" x2="243.84" y2="151.87" gradientUnits="userSpaceOnUse"><stop offset="0" stop-color="#00c3ff" stop-opacity="0"/><stop offset="0.2" stop-color="#00c3ff" stop-opacity="0.01"/><stop offset="0.34" stop-color="#00c3ff" stop-opacity="0.05"/><stop offset="0.45" stop-color="#00c3ff" stop-opacity="0.1"/><stop offset="0.55" stop-color="#00c3ff" stop-opacity="0.19"/><stop offset="0.65" stop-color="#00c3ff" stop-opacity="0.3"/><stop offset="0.74" stop-color="#00c3ff" stop-opacity="0.43"/><stop offset="0.83" stop-color="#00c3ff" stop-opacity="0.59"/><stop offset="0.91" stop-color="#00c3ff" stop-opacity="0.77"/><stop offset="0.99" stop-color="#00c3ff" stop-opacity="0.98"/><stop offset="1" stop-color="#00c3ff"/></linearGradient><linearGradient id="未命名的渐变_49" x1="229.89" y1="111.9" x2="399.9" y2="161.9" gradientUnits="userSpaceOnUse"><stop offset="0" stop-color="#f3b12d" stop-opacity="0"/><stop offset="0.1" stop-color="#f3b12d" stop-opacity="0.02"/><stop offset="0.23" stop-color="#f3b12d" stop-opacity="0.09"/><stop offset="0.37" stop-color="#f3b12d" stop-opacity="0.2"/><stop offset="0.53" stop-color="#f3b12d" stop-opacity="0.36"/><stop offset="0.7" stop-color="#f3b12d" stop-opacity="0.56"/><stop offset="0.87" stop-color="#f3b12d" stop-opacity="0.8"/><stop offset="1" stop-color="#f3b12d"/></linearGradient><linearGradient id="未命名的渐变_49-2" x1="447.42" y1="309.86" x2="330.42" y2="424.86" xlink:href="#未命名的渐变_49"/><linearGradient id="未命名的渐变_46-2" x1="337.95" y1="466.03" x2="226.95" y2="392.02" xlink:href="#未命名的渐变_46"/></defs><title>资源 28</title><g id="图层_2" data-name="图层 2"><g id="图层_1-2" data-name="图层 1"><path id="_路径_" data-name="&lt;路径&gt;" class="cls-1" d="M297.39,274.62,167.13,49A260.43,260.43,0,0,0,36.82,274.62Z"/><path id="_路径_2" data-name="&lt;路径&gt;" class="cls-2" d="M297.39,274.62,167.13,49A260.43,260.43,0,0,0,36.82,274.62Z"/><text class="cls-3" transform="translate(109.81 196.28)"><tspan class="cls-4">V</tspan><tspan x="12.49" y="0">oting</tspan><tspan x="-23.81" y="22.06">Mechanism</tspan></text><path id="_路径_3" data-name="&lt;路径&gt;" class="cls-5" d="M297.39,274.62l137-237.36a274,274,0,0,0-274.1,0Z"/><path id="_路径_4" data-name="&lt;路径&gt;" class="cls-6" d="M297.39,274.62l137-237.36a274,274,0,0,0-274.1,0Z"/><path id="_路径_5" data-name="&lt;路径&gt;" class="cls-5" d="M297.39,274.62,427.66,500.25A260.42,260.42,0,0,0,558,274.62Z"/><path id="_路径_6" data-name="&lt;路径&gt;" class="cls-7" d="M297.39,274.62,427.66,500.25A260.42,260.42,0,0,0,558,274.62Z"/><text class="cls-3" transform="translate(257.14 57.82)">Incentive<tspan x="-11.34" y="22.06">Mechanism</tspan></text><text class="cls-3" transform="translate(384.76 375.15)">Expert Grading<tspan x="16.47" y="22.06">Mechanism</tspan></text><g id="_编组_" data-name="&lt;编组&gt;"><path id="_路径_7" data-name="&lt;路径&gt;" class="cls-8" d="M320.49,108.74c1-1.2.65-3.2-.7-4.44a3.38,3.38,0,0,0-4.44-.1c-.68.56-5.39,5.38-8.13,8.08s-7.83,3.64-9.83,3.64-7.08-1-9.83-3.64-7.45-7.52-8.13-8.08a3.38,3.38,0,0,0-4.44.1c-1.34,1.24-1.69,3.24-.7,4.44s13.92,14.16,13.92,14.16.6,7.54,0,11.68-4.06,16.42-4.29,17.26a3.16,3.16,0,0,0,2.12,4.21,3.61,3.61,0,0,0,4.78-2.58c.6-2,4.38-15.6,4.58-16.3a2.13,2.13,0,0,1,4.09,0c.2.7,4,14.31,4.57,16.3a3.61,3.61,0,0,0,4.78,2.58,3.16,3.16,0,0,0,2.12-4.21c-.23-.84-3.64-13.12-4.29-17.26s-.05-11.68-.05-11.68S319.49,109.93,320.49,108.74Z"/><circle id="_路径_8" data-name="&lt;路径&gt;" class="cls-8" cx="297.39" cy="103.3" r="7.49" transform="translate(158.33 385.74) rotate(-82.94)"/></g><path id="_路径_9" data-name="&lt;路径&gt;" class="cls-1" d="M297.39,274.62,160.35,512a274,274,0,0,0,274.1,0Z"/><path id="_路径_10" data-name="&lt;路径&gt;" class="cls-9" d="M297.39,274.62,160.35,512a274,274,0,0,0,274.1,0Z"/><text class="cls-3" transform="translate(238.42 472.22)">Credit Rating<tspan x="7.38" y="22.06">Mechanism</tspan></text><path id="_路径_11" data-name="&lt;路径&gt;" class="cls-5" d="M297.39,274.62H.5c0,109.89,59.7,205.82,148.42,257.16Z"/><text class="cls-3" transform="translate(78.43 393.01)">Arbitration<tspan x="-5.67" y="22.06">Mechanism</tspan></text><g id="_编组_2" data-name="&lt;编组&gt;"><path id="_路径_12" data-name="&lt;路径&gt;" class="cls-8" d="M104,342.41c.3-.72.56-1.39.84-2q2.56-6,5.11-12c.23-.53.46-1.07.67-1.61.1-.26.22-.28.47-.18,3.09,1.31,6.2,2.6,9.3,3.9.46.19.92.39,1.39.57.28.1.33.26.21.53-.66,1.53-1.3,3.07-2,4.6-.14.33-.12.49.27.62,2.53.84,5.06,1.71,7.58,2.57,1.2.41,2.38.84,3.57,1.24l4.09,1.33c.65.22,1.29.47,1.94.69l3.6,1.25,4.21,1.44c2.07.7,4.16,1.33,6.2,2.1a4.15,4.15,0,0,1,2.22,2.34,4.55,4.55,0,0,1,0,3.93,5.36,5.36,0,0,1-2,2.51,3.15,3.15,0,0,1-3.15.21c-4.27-2-8.52-4.07-12.78-6.09L126.79,346l-4.21-2-2.3-1.1c-.76-.35-1.52-.7-2.29-1a.38.38,0,0,0-.35.12,6.16,6.16,0,0,0-.33.74l-1.77,4.06c-.1.25-.23.3-.47.2-1-.43-2-.87-3-1.28s-2.13-.84-3.19-1.28c-1.35-.57-2.7-1.17-4-1.75Z"/><path id="_路径_13" data-name="&lt;路径&gt;" class="cls-8" d="M108.79,362.7H96.4a1.88,1.88,0,0,1-1.87-1.87c0-.69,0-1.39,0-2.08a1.9,1.9,0,0,1,2-2c2.58,0,5.16,0,7.74,0h12.84l4.07,0a1.8,1.8,0,0,1,1.82,1.29,1.83,1.83,0,0,1,.09.52v2.12a1.9,1.9,0,0,1-2,2Z"/><path id="_路径_14" data-name="&lt;路径&gt;" class="cls-8" d="M123.42,331c-.56-.22-1.13-.42-1.69-.65l-11-4.58a1.85,1.85,0,0,1-1.24-1.74,1.74,1.74,0,0,1,1.27-1.67,1.8,1.8,0,0,1,1.1,0c1.9.75,3.79,1.55,5.67,2.33l6.6,2.76a1.78,1.78,0,0,1-.05,3.34,3.61,3.61,0,0,1-.67.13Z"/><path id="_路径_15" data-name="&lt;路径&gt;" class="cls-8" d="M114.7,351.58c-.6-.22-1.21-.44-1.81-.68l-10.84-4.53a1.85,1.85,0,0,1-1.17-2.27,1.82,1.82,0,0,1,1.92-1.25,11.4,11.4,0,0,1,1.71.63q1.48.58,3,1.2l6.53,2.76c.49.21,1,.4,1.46.63a1.71,1.71,0,0,1,1.07,1.67,1.67,1.67,0,0,1-1.05,1.6,3.73,3.73,0,0,1-.75.18Z"/></g><text class="cls-3" transform="translate(392.61 197.27)">Member Grading<tspan x="24.4" y="22.06">Mechanism</tspan></text><path id="_路径_16" data-name="&lt;路径&gt;" class="cls-1" d="M297.39,274.62H594.28c0-109.88-59.69-205.81-148.42-257.15Z"/><circle id="_路径_17" data-name="&lt;路径&gt;" class="cls-10" cx="297.39" cy="274.62" r="93"/><g id="_编组_3" data-name="&lt;编组&gt;"><path id="_路径_18" data-name="&lt;路径&gt;" class="cls-8" d="M284.26,236.13a13.81,13.81,0,0,1,5.63,24.05H308L296.66,236l1.43-.68a12.08,12.08,0,0,0-3.81-22.93h-10Z"/><path id="_路径_19" data-name="&lt;路径&gt;" class="cls-8" d="M281.11,235.75V212.4H273.5v23.35h7.61Z"/><path id="_路径_20" data-name="&lt;路径&gt;" class="cls-8" d="M321.28,217.17a14.6,14.6,0,0,0-13.14,8.27c0-.34,0-.69,0-1a15.2,15.2,0,0,0-5.86-12h19Z"/><path id="_路径_21" data-name="&lt;路径&gt;" class="cls-8" d="M321.28,260.18h-9.75l-10.71-22.74a15.35,15.35,0,0,0,5.91-6.59c0,.3,0,.6,0,.91a14.6,14.6,0,0,0,14.58,14.58Z"/><path id="_路径_22" data-name="&lt;路径&gt;" class="cls-8" d="M321.28,243.19a11.43,11.43,0,1,1,0-22.86Z"/><path id="_路径_23" data-name="&lt;路径&gt;" class="cls-8" d="M291.72,249.57a10.68,10.68,0,0,0-10.66-10.67H273.5v21.28h8.63A10.68,10.68,0,0,0,291.72,249.57Z"/></g><g id="_编组_4" data-name="&lt;编组&gt;"><text class="cls-11" transform="translate(275.27 286.12)">DRC<tspan x="-36.9" y="22.06">Governance</tspan><tspan x="-33.49" y="44.13">Mechanism</tspan></text></g><g id="_编组_5" data-name="&lt;编组&gt;"><g id="_编组_6" data-name="&lt;编组&gt;"><path id="_路径_24" data-name="&lt;路径&gt;" class="cls-12" d="M297.49,431.41c-4.68.41-9.13-.77-13.6-1.79-2.25-.51-2.39-.88-2.73-3.16-.64-4.25,1.66-7.3,5.25-8.83a26.73,26.73,0,0,1,16.06-1.82,22.3,22.3,0,0,1,7.78,2.69,6.91,6.91,0,0,1,3.48,6.75c0,.52-.08,1-.13,1.56-.17,2-.4,2.36-2.41,2.81C306.67,430.63,302.18,431.84,297.49,431.41Z"/><path id="_路径_25" data-name="&lt;路径&gt;" class="cls-12" d="M297.55,392.93c3.18-.23,5.95.64,7.66,3.46a7,7,0,0,1,1.17,3.84,56.07,56.07,0,0,1-1.42,8.32c-.49,2.11-2.33,3.13-4.09,4-4.12,2.09-7.95.11-10-2.65a12.82,12.82,0,0,1-1.89-5.37c-.42-2.39-.76-4.85.34-7.25a7.32,7.32,0,0,1,6.27-4.37A18.67,18.67,0,0,1,297.55,392.93Z"/></g><g id="_编组_7" data-name="&lt;编组&gt;"><polygon id="_路径_26" data-name="&lt;路径&gt;" class="cls-12" points="273.72 435.3 274.95 439.07 278.9 439.07 275.7 441.39 276.92 445.15 273.72 442.83 270.52 445.15 271.75 441.39 268.54 439.07 272.5 439.07 273.72 435.3"/><polygon id="_路径_27" data-name="&lt;路径&gt;" class="cls-12" points="285.56 435.3 286.79 439.07 290.74 439.07 287.54 441.39 288.76 445.15 285.56 442.83 282.36 445.15 283.58 441.39 280.38 439.07 284.34 439.07 285.56 435.3"/><polygon id="_路径_28" data-name="&lt;路径&gt;" class="cls-12" points="297.4 435.3 298.63 439.07 302.58 439.07 299.38 441.39 300.6 445.15 297.4 442.83 294.2 445.15 295.42 441.39 292.22 439.07 296.18 439.07 297.4 435.3"/><polygon id="_路径_29" data-name="&lt;路径&gt;" class="cls-12" points="309.24 435.3 310.46 439.07 314.42 439.07 311.22 441.39 312.44 445.15 309.24 442.83 306.04 445.15 307.26 441.39 304.06 439.07 308.02 439.07 309.24 435.3"/><path id="_复合路径_" data-name="&lt;复合路径&gt;" class="cls-12" d="M326.26,439.07h-4l-1.22-3.77-1.22,3.77h-4l3.2,2.32-1.22,3.77,3.2-2.33,3.2,2.33-1.22-3.77Zm-5.18,2.57-1.73,1.26.66-2-1.73-1.26h2.14l.66-2,.66,2h2.15l-1.74,1.26.66,2Z"/></g></g><g id="_编组_8" data-name="&lt;编组&gt;"><g id="_编组_9" data-name="&lt;编组&gt;"><path id="_路径_30" data-name="&lt;路径&gt;" class="cls-8" d="M449.48,350.09H430.34l-.66,0c-.46,0-.6-.13-.58-.58,0-1,.07-2.09.19-3.13a15.4,15.4,0,0,1,1-4.35,16.22,16.22,0,0,1,1-2,4.06,4.06,0,0,1,2.5-1.64c1.92-.64,3.87-1.17,5.78-1.82a19.88,19.88,0,0,0,2.6-1.23c.4-.2.64-.13.77.29a17.41,17.41,0,0,0,4.18,7.36,1.8,1.8,0,0,0,.4.25,4.43,4.43,0,0,0,.15-.43c.2-1,.38-2,.59-3a1.17,1.17,0,0,0-.19-1,3.53,3.53,0,0,1-.48-.75c-.09-.18-.16-.47-.07-.58s.38-.15.57-.14c.57,0,1.14.11,1.7.13.31,0,.62-.11.92-.12s.55,0,.66.13,0,.42-.08.65a.42.42,0,0,1-.1.17,2,2,0,0,0-.47,1.94c.26.93.36,1.91.55,2.88.06.33.25.22.39.06.62-.73,1.27-1.45,1.84-2.22a17.63,17.63,0,0,0,2.15-4.24c.14-.34.22-.7.33-1.05s.42-.49.72-.26a11.67,11.67,0,0,0,3.6,1.57c1.82.58,3.65,1.15,5.47,1.74a4.22,4.22,0,0,1,2.43,2.38,15.86,15.86,0,0,1,1.47,5.6c.09.95.12,1.9.16,2.85,0,.48-.09.59-.55.6l-2,0Z"/><path id="_复合路径_2" data-name="&lt;复合路径&gt;" class="cls-8" d="M458.83,318.75c-.1.7-.19,1.4-.28,2.1a.64.64,0,0,0,0,.39,3.28,3.28,0,0,1,.41,1.84,6.81,6.81,0,0,1-.73,3.75,9.15,9.15,0,0,0-.72,2.14,6.25,6.25,0,0,1-1.17,2.6c-.65.69-1.15,1.52-1.82,2.19a7.36,7.36,0,0,1-4.68,2.25,6.35,6.35,0,0,1-4-1.18,8.9,8.9,0,0,1-2.61-2.54c-.4-.61-.83-1.2-1.21-1.82a6.16,6.16,0,0,1-.65-2.46,1.53,1.53,0,0,0-.32-.75,3.73,3.73,0,0,1-.81-2,13.3,13.3,0,0,1-.18-2.44,7.42,7.42,0,0,1,.36-1.48.9.9,0,0,0,.06-.42,7.09,7.09,0,0,1,.8-5.49,1.64,1.64,0,0,1,1.2-.9.48.48,0,0,0,.27-.34,4.21,4.21,0,0,1,3.27-3.39,11,11,0,0,1,10.71,2.77A7,7,0,0,1,458.83,318.75Zm-3,4.4-.13,0c0-.39.1-.77.13-1.16,0-.66-.12-.92-.72-1.14a5.08,5.08,0,0,0-.87-.24c-1.62-.33-3.25-.61-4.85-1a11.53,11.53,0,0,1-5-2.47l-.47-.38a30.64,30.64,0,0,1-.61,6.44,7.33,7.33,0,0,1-.56-.55.53.53,0,0,0-.92.27,5.3,5.3,0,0,0,.34,3.57.85.85,0,0,0,.43.46.43.43,0,0,1,.34.51,5.46,5.46,0,0,0,.66,2.51,18.57,18.57,0,0,0,1.31,2l0,0a9.71,9.71,0,0,0,2.3,1.78,4.36,4.36,0,0,0,3.69.39,7.5,7.5,0,0,0,2.31-1.39,9.47,9.47,0,0,0,1.8-2.05,6.31,6.31,0,0,0,1.15-3.42c0-.12.13-.31.21-.32a.71.71,0,0,0,.61-.53,5.36,5.36,0,0,0,.34-3.42c-.13-.58-.5-.73-1-.36C456.16,322.79,456,323,455.81,323.15Z"/><path id="_复合路径_3" data-name="&lt;复合路径&gt;" class="cls-8" d="M455.52,325.3A2.61,2.61,0,0,1,453.2,328a2.66,2.66,0,0,1-2.91-1.91,4.07,4.07,0,0,1-.12-.92c0-.4-.22-.6-.68-.6s-.68.17-.66.6a2.58,2.58,0,0,1-1.57,2.62,2.76,2.76,0,0,1-3.7-1.82,2.91,2.91,0,0,1,1.12-2.85,2.74,2.74,0,0,1,3,0,.63.63,0,0,0,.74.06,2.57,2.57,0,0,1,2.2.06.51.51,0,0,0,.59-.05,2.66,2.66,0,0,1,4.28,2.12Zm-3.78,0a1.16,1.16,0,0,0,1.13,1.11,1.14,1.14,0,0,0,1.1-1.14,1.17,1.17,0,0,0-1.13-1.12A1.18,1.18,0,0,0,451.74,325.31Zm-4.46,0a1.13,1.13,0,0,0-1.08-1.15,1.16,1.16,0,0,0-1.14,1.11,1.11,1.11,0,1,0,2.22,0Z"/></g><polygon id="_路径_31" data-name="&lt;路径&gt;" class="cls-8" points="477.76 341.21 470.7 341.21 469.18 338.46 475.02 338.46 475.02 307.99 453.12 307.99 453.12 309.02 450.37 308.38 450.37 305.25 477.76 305.25 477.76 341.21"/><rect class="cls-8" x="461.41" y="313.94" width="9.86" height="2.07"/><rect id="_矩形_" data-name="&lt;矩形&gt;" class="cls-8" x="461.41" y="319.5" width="9.86" height="2.07"/><rect class="cls-8" x="461.41" y="325.06" width="9.86" height="2.07"/><rect id="_矩形_2" data-name="&lt;矩形&gt;" class="cls-8" x="461.41" y="330.63" width="9.86" height="2.07"/></g><g id="_编组_10" data-name="&lt;编组&gt;"><polygon id="_路径_32" data-name="&lt;路径&gt;" class="cls-12" points="493.28 164.07 482.62 164.07 481.1 161.33 490.54 161.33 490.54 130.86 468.63 130.86 468.63 131.89 465.89 131.24 465.89 128.12 493.28 128.12 493.28 164.07"/><rect id="_矩形_3" data-name="&lt;矩形&gt;" class="cls-12" x="476.93" y="136.8" width="9.86" height="2.07"/><rect class="cls-12" x="476.93" y="142.37" width="9.86" height="2.07"/><rect class="cls-12" x="476.93" y="147.93" width="9.86" height="2.07"/><rect id="_矩形_4" data-name="&lt;矩形&gt;" class="cls-12" x="476.93" y="153.5" width="9.86" height="2.07"/><path id="_路径_33" data-name="&lt;路径&gt;" class="cls-12" d="M463.67,133.93c3.56-.25,6.67.72,8.6,3.89a7.88,7.88,0,0,1,1.31,4.31,61.79,61.79,0,0,1-1.59,9.34c-.55,2.36-2.62,3.51-4.6,4.52-4.62,2.35-8.92.12-11.24-3a14.49,14.49,0,0,1-2.12-6c-.48-2.69-.86-5.45.38-8.14a8.19,8.19,0,0,1,7-4.9A18.44,18.44,0,0,1,463.67,133.93Z"/><path id="_路径_34" data-name="&lt;路径&gt;" class="cls-12" d="M445.51,172.93h36.06c.05-.28.09-.59.12-1,.05-.59.11-1.17.15-1.76a7.77,7.77,0,0,0-3.91-7.57,25.06,25.06,0,0,0-8.74-3,30,30,0,0,0-18,2c-4,1.71-6.62,5.15-5.9,9.92C445.35,172.12,445.42,172.56,445.51,172.93Z"/></g><g id="_编组_11" data-name="&lt;编组&gt;"><g id="_编组_12" data-name="&lt;编组&gt;"><path id="_路径_35" data-name="&lt;路径&gt;" class="cls-12" d="M161,125.43v1.4h-4.07s-4.49-1.65-3.19-10.86c0,0-5.63-.55-5.25,10.63H141a2.34,2.34,0,1,0,0,4.67,2.34,2.34,0,0,0,0,4.68h1.17a2.34,2.34,0,1,0,0,4.68h1.56a2.34,2.34,0,1,0,0,4.67H161v1.4h5.19V125.43Z"/><path id="_路径_36" data-name="&lt;路径&gt;" class="cls-12" d="M135.43,157.62a2.34,2.34,0,1,0,0-4.68h-1.17a2.34,2.34,0,1,0,0-4.68H132.7a2.34,2.34,0,1,0,0-4.67H115.42v-1.4h-5.2v21.27h5.2v-1.39h4.07s4.48,1.64,3.19,10.86c0,0,5.63.54,5.25-10.64h7.5a2.34,2.34,0,1,0,0-4.67Z"/></g><path id="_路径_37" data-name="&lt;路径&gt;" class="cls-12" d="M138.2,166.16c-.46,0-.92,0-1.37,0l.15-2.43c.4,0,.81,0,1.22,0a19.18,19.18,0,0,0,18.8-15l2.37.54A21.59,21.59,0,0,1,138.2,166.16Z"/><path id="_路径_38" data-name="&lt;路径&gt;" class="cls-12" d="M119.4,140.16l-2.38-.54a21.6,21.6,0,0,1,21.18-16.89v2.43A19.17,19.17,0,0,0,119.4,140.16Z"/></g></g></g></svg>