<svg xmlns="http://www.w3.org/2000/svg" xmlns:xlink="http://www.w3.org/1999/xlink" viewBox="0 0 156.78 180.49"><defs><style>.cls-1,.cls-2{fill:none;}.cls-1{stroke:#f3b12d;}.cls-1,.cls-2,.cls-3{stroke-linecap:round;stroke-linejoin:round;}.cls-2,.cls-3{stroke:#00c3ff;}.cls-4{fill:url(#未命名的渐变_43);}</style><linearGradient id="未命名的渐变_43" x1="84.88" y1="143.28" x2="84.88" y2="59.62" gradientUnits="userSpaceOnUse"><stop offset="0.01" stop-color="#00c3ff"/><stop offset="0.21" stop-color="#00bffb"/><stop offset="0.42" stop-color="#00b2ef"/><stop offset="0.64" stop-color="#009edb"/><stop offset="0.85" stop-color="#0081bf"/><stop offset="1" stop-color="#0068a7"/></linearGradient></defs><title>资源 30</title><g id="图层_2" data-name="图层 2"><g id="图层_1-2" data-name="图层 1"><g id="_编组_" data-name="&lt;编组&gt;"><g id="_编组_2" data-name="&lt;编组&gt;"><polygon id="_路径_" data-name="&lt;路径&gt;" class="cls-1" points="78.39 167.82 11.05 129.16 11.05 51.28 0.5 45.19 0.5 135.28 0.5 135.28 0.5 135.28 78.39 179.99 78.39 167.82"/><polygon id="_路径_2" data-name="&lt;路径&gt;" class="cls-1" points="145.74 51.28 145.74 129.16 78.39 167.82 78.39 179.99 145.74 141.34 145.74 141.37 156.28 135.28 156.28 135.28 156.28 123.11 156.28 45.19 145.74 51.28"/><polygon id="_路径_3" data-name="&lt;路径&gt;" class="cls-1" points="78.39 12.68 11.05 51.28 11.05 129.19 21.59 123.11 21.59 57.42 78.39 24.82 78.39 12.68"/><polygon id="_路径_4" data-name="&lt;路径&gt;" class="cls-1" points="78.39 12.68 11.05 51.28 11.05 129.19 21.59 123.11 21.59 57.42 78.39 24.82 78.39 12.68"/><polyline id="_路径_5" data-name="&lt;路径&gt;" class="cls-1" points="107.48 41.51 135.19 57.42 135.19 123.11 145.74 129.19 145.74 63.47 145.74 63.47 145.74 51.34 145.74 51.33 145.74 51.28 78.39 12.68 78.39 24.82 83.11 27.53"/><polygon id="_路径_6" data-name="&lt;路径&gt;" class="cls-1" points="145.74 51.28 156.27 45.2 78.39 0.5 78.39 12.68 145.7 51.31 145.74 51.28"/><g id="_编组_3" data-name="&lt;编组&gt;"><polygon id="_路径_7" data-name="&lt;路径&gt;" class="cls-1" points="43.93 135.92 21.59 123.11 11.05 129.19 43.93 148.05 43.93 135.92"/><polygon id="_路径_8" data-name="&lt;路径&gt;" class="cls-1" points="135.19 123.11 78.4 155.68 65.08 148.05 65.02 148.09 54.54 154.14 78.39 167.82 78.39 167.82 78.39 167.82 145.74 129.19 135.19 123.11"/></g><polygon id="_路径_9" data-name="&lt;路径&gt;" class="cls-1" points="0.52 45.2 11.05 51.28 11.06 51.32 78.39 12.68 78.39 0.5 0.52 45.2"/></g><path id="_路径_10" data-name="&lt;路径&gt;" class="cls-2" d="M100.13,74.63a33.11,33.11,0,0,0,4.29-16.69c0-4.42-.84-7.73-2.52-9.9a6.21,6.21,0,0,0-6.66-2.4,13.1,13.1,0,0,0-1.94.66,23.47,23.47,0,0,1,.58,5.55,33.11,33.11,0,0,1-4.29,16.69Q85.29,76.07,75.07,82l-10,5.8V100l20.6-11.89Q95.84,82.15,100.13,74.63Z"/><g id="_编组_4" data-name="&lt;编组&gt;"><path id="_复合路径_" data-name="&lt;复合路径&gt;" class="cls-3" d="M54.47,154.18V55.76L84.53,38.41a74.61,74.61,0,0,1,12.12-6c3.92-1.4,7.19-1.64,9.84-.74s4.77,3.08,6.39,6.52a30.78,30.78,0,0,1,2.42,13,59.33,59.33,0,0,1-6.47,26.56q-6.48,13.08-23.38,22.84L65,112.43v35.66ZM65,100l20.6-11.89q10.22-5.91,14.51-13.43a33.11,33.11,0,0,0,4.29-16.69c0-4.42-.84-7.73-2.52-9.9a6.21,6.21,0,0,0-6.66-2.4q-2.67.6-9.84,4.74L65,62.15Z"/></g><path id="_路径_11" data-name="&lt;路径&gt;" class="cls-2" d="M97.48,26.29v0A8.2,8.2,0,0,0,96,25.59q-4-1.35-9.84.74a74.61,74.61,0,0,0-12.12,6L43.93,49.67h0l10.54,6.09h0L84.53,38.41a74.61,74.61,0,0,1,12.12-6c3.92-1.4,7.19-1.64,9.84-.74a8.57,8.57,0,0,1,1.65.78h0Z"/><g id="_编组_5" data-name="&lt;编组&gt;"><path id="_复合路径_2" data-name="&lt;复合路径&gt;" class="cls-2" d="M43.93,148.09V49.67l10.54,6.09v98.42Z"/></g><g id="_编组_6" data-name="&lt;编组&gt;"><path id="_复合路径_3" data-name="&lt;复合路径&gt;" class="cls-4" d="M54.47,154.18V55.76L84.53,38.41a74.61,74.61,0,0,1,12.12-6c3.92-1.4,7.19-1.64,9.84-.74s4.77,3.08,6.39,6.52a30.78,30.78,0,0,1,2.42,13,59.33,59.33,0,0,1-6.47,26.56q-6.48,13.08-23.38,22.84L65,112.43v35.66ZM65,100l20.6-11.89q10.22-5.91,14.51-13.43a33.11,33.11,0,0,0,4.29-16.69c0-4.42-.84-7.73-2.52-9.9a6.21,6.21,0,0,0-6.66-2.4q-2.67.6-9.84,4.74L65,62.15Z"/></g></g></g></g></svg>