<svg xmlns="http://www.w3.org/2000/svg" xmlns:xlink="http://www.w3.org/1999/xlink" viewBox="0 0 156.78 180.49"><defs><style>.cls-1,.cls-3{fill:none;}.cls-1{stroke:#f3b12d;}.cls-1,.cls-2,.cls-3{stroke-linecap:round;stroke-linejoin:round;}.cls-2,.cls-3{stroke:#00c3ff;}.cls-4{fill:url(#未命名的渐变_43);}</style><linearGradient id="未命名的渐变_43" x1="91.56" y1="147.45" x2="91.56" y2="44.67" gradientUnits="userSpaceOnUse"><stop offset="0.01" stop-color="#00c3ff"/><stop offset="0.21" stop-color="#00bffb"/><stop offset="0.42" stop-color="#00b2ef"/><stop offset="0.64" stop-color="#009edb"/><stop offset="0.85" stop-color="#0081bf"/><stop offset="1" stop-color="#0068a7"/></linearGradient></defs><title>资源 32</title><g id="图层_2" data-name="图层 2"><g id="图层_1-2" data-name="图层 1"><g id="_编组_" data-name="&lt;编组&gt;"><g id="_编组_2" data-name="&lt;编组&gt;"><polygon id="_路径_" data-name="&lt;路径&gt;" class="cls-1" points="78.39 167.82 11.05 129.16 11.05 51.28 0.5 45.19 0.5 135.28 0.5 135.28 0.5 135.28 78.39 179.99 78.39 167.82"/><polygon id="_路径_2" data-name="&lt;路径&gt;" class="cls-1" points="145.74 51.28 145.74 129.16 78.39 167.82 78.39 179.99 145.74 141.34 145.74 141.37 156.28 135.28 156.28 135.28 156.28 123.11 156.28 45.19 145.74 51.28"/><polygon id="_路径_3" data-name="&lt;路径&gt;" class="cls-1" points="78.39 12.68 11.05 51.28 11.05 129.19 21.59 123.11 21.59 57.42 78.39 24.82 78.39 12.68"/><polygon id="_路径_4" data-name="&lt;路径&gt;" class="cls-1" points="78.39 12.68 11.05 51.28 11.05 129.19 21.59 123.11 21.59 57.42 78.39 24.82 78.39 12.68"/><polyline id="_路径_5" data-name="&lt;路径&gt;" class="cls-1" points="98.59 36.41 135.19 57.42 135.19 123.11 145.74 129.19 145.74 63.47 145.74 63.47 145.74 51.34 145.74 51.33 145.74 51.28 78.39 12.68 78.39 24.82 83.59 27.8"/><polygon id="_路径_6" data-name="&lt;路径&gt;" class="cls-1" points="145.74 51.28 156.27 45.2 78.39 0.5 78.39 12.68 145.7 51.31 145.74 51.28"/><g id="_编组_3" data-name="&lt;编组&gt;"><polyline id="_路径_7" data-name="&lt;路径&gt;" class="cls-1" points="107.7 138.87 78.39 155.68 65.08 148.05 58.65 144.36"/><polyline id="_路径_8" data-name="&lt;路径&gt;" class="cls-1" points="41.07 134.3 21.52 123.11 11.05 129.16 78.39 167.82 78.39 167.82 78.39 167.82 145.74 129.19 135.19 123.11 124.16 129.43"/></g><polygon id="_路径_9" data-name="&lt;路径&gt;" class="cls-1" points="0.52 45.2 11.05 51.28 11.06 51.32 78.39 12.68 78.39 0.5 0.52 45.2"/></g><path id="_路径_10" data-name="&lt;路径&gt;" class="cls-2" d="M99.22,93.14l-7.61-4.37-1,4.37s3.07,1.79,3.71,2a23.35,23.35,0,0,0,4.29,0Z"/><path id="_复合路径_" data-name="&lt;复合路径&gt;" class="cls-3" d="M60.54,57.91v45.68L78.12,92.68c11.26-6.51,20.5-10.22,24.81-18.94s1.57-22.16,1.57-31.15c0-4.4-3-2.64-4.12-5.77ZM91.1,39.4q2.54,3.26,2.53,9.9A33.11,33.11,0,0,1,89.34,66Q85,73.52,74.82,79.42L54.22,91.31"/><path id="_复合路径_2" data-name="&lt;复合路径&gt;" class="cls-3" d="M51.61,58,72,46.26q7.17-4.14,9.84-4.74a6.21,6.21,0,0,1,6.66,2.4c1.68,2.17,12.79-4.93,11.66-8.06l3.85,2,4.09-6-9.65-5.59v0a8.2,8.2,0,0,0-1.53-.72q-4-1.35-9.84.74c-2.79.94-10.66,4.9-15.95,8L41.06,51.64"/><g id="_编组_4" data-name="&lt;编组&gt;"><path id="_复合路径_3" data-name="&lt;复合路径&gt;" class="cls-3" d="M41.06,146.39V51.64l10.55,6.09v94.75Z"/></g><g id="_编组_5" data-name="&lt;编组&gt;"><path id="_复合路径_4" data-name="&lt;复合路径&gt;" class="cls-3" d="M107.72,138.91s-17.94-26.74-21.59-32.2a56.45,56.45,0,0,0-6.71-8.4L91.66,98l26.6,47Z"/></g><g id="_编组_6" data-name="&lt;编组&gt;"><path id="_复合路径_5" data-name="&lt;复合路径&gt;" class="cls-2" d="M51.61,152.48V57.73l35.33-20.4q10.65-6.15,16.19-6.5t8.86,5q3.32,5.3,3.32,14A48.7,48.7,0,0,1,109.82,72q-5.49,10.89-17,19.6a14,14,0,0,1,6.36,1.59,31.72,31.72,0,0,1,8.75,9l23.55,35.19L118.26,145,98,114.68a97.24,97.24,0,0,0-7.61-10.18q-3-3.31-5.35-4a9.23,9.23,0,0,0-4.81,0,32,32,0,0,0-5.87,2.88l-12.23,7.06v36ZM62.15,98.31,84.82,85.23a49.26,49.26,0,0,0,11.3-8.51,29.65,29.65,0,0,0,6.2-9.93,30.19,30.19,0,0,0,2.12-10.71q0-7.5-4.11-10t-13,2.65L62.15,63.33Z"/></g><g id="_编组_7" data-name="&lt;编组&gt;"><path id="_复合路径_6" data-name="&lt;复合路径&gt;" class="cls-4" d="M51.61,152.48V57.73l35.33-20.4q10.65-6.15,16.19-6.5t8.86,5q3.32,5.3,3.32,14A48.7,48.7,0,0,1,109.82,72q-5.49,10.89-17,19.6a14,14,0,0,1,6.36,1.59,31.72,31.72,0,0,1,8.75,9l23.55,35.19L118.26,145,98,114.68a97.24,97.24,0,0,0-7.61-10.18q-3-3.31-5.35-4a9.23,9.23,0,0,0-4.81,0,32,32,0,0,0-5.87,2.88l-12.23,7.06v36ZM62.15,98.31,84.82,85.23a49.26,49.26,0,0,0,11.3-8.51,29.65,29.65,0,0,0,6.2-9.93,30.19,30.19,0,0,0,2.12-10.71q0-7.5-4.11-10t-13,2.65L62.15,63.33Z"/></g></g></g></g></svg>