<svg xmlns="http://www.w3.org/2000/svg" xmlns:xlink="http://www.w3.org/1999/xlink" viewBox="0 0 570.37 1446.56"><defs><style>.cls-1{font-size:30px;font-family:Helvetica-Condensed-Bold, Helvetica Condensed;font-weight:700;letter-spacing:-0.04em;}.cls-1,.cls-12{fill:#fff;}.cls-11,.cls-2{fill:none;stroke-miterlimit:10;}.cls-2{stroke:#dc9a2d;}.cls-3{fill:#f3b12d;}.cls-4{fill:url(#未命名的渐变_54);}.cls-5{fill:url(#未命名的渐变_54-2);}.cls-6{fill:url(#未命名的渐变_54-3);}.cls-7{fill:url(#未命名的渐变_54-4);}.cls-8{fill:url(#未命名的渐变_54-5);}.cls-9{fill:url(#未命名的渐变_54-6);}.cls-10{fill:url(#未命名的渐变_54-7);}.cls-11{stroke:#f3b12d;}.cls-12{font-size:21.88px;font-family:ArialMT-Light, Arial;}.cls-13{letter-spacing:-0.01em;}.cls-14{letter-spacing:-0.02em;}.cls-15{letter-spacing:-0.02em;}.cls-16{letter-spacing:-0.03em;}.cls-17{letter-spacing:0.05em;}.cls-18{letter-spacing:0.12em;}.cls-19{letter-spacing:-0.01em;}.cls-20{letter-spacing:0em;}.cls-21{letter-spacing:0.05em;}.cls-22{letter-spacing:-0.02em;}.cls-23{letter-spacing:0.04em;}.cls-24{letter-spacing:-0.05em;}.cls-25{letter-spacing:-0.02em;}.cls-26{letter-spacing:-0.04em;}.cls-27{letter-spacing:-0.02em;}.cls-28{letter-spacing:-0.11em;}</style><radialGradient id="未命名的渐变_54" cx="-1066.96" cy="6387.07" r="31.21" gradientTransform="translate(6675.27 1209.37) rotate(90)" gradientUnits="userSpaceOnUse"><stop offset="0" stop-color="#00c3ff"/><stop offset="1" stop-color="#00c3ff" stop-opacity="0"/></radialGradient><radialGradient id="未命名的渐变_54-2" cx="-901" cy="6387.07" r="31.21" xlink:href="#未命名的渐变_54"/><radialGradient id="未命名的渐变_54-3" cx="-735.03" cy="6387.07" r="31.21" xlink:href="#未命名的渐变_54"/><radialGradient id="未命名的渐变_54-4" cx="-569.07" cy="6387.07" r="31.21" xlink:href="#未命名的渐变_54"/><radialGradient id="未命名的渐变_54-5" cx="-403.1" cy="6387.07" r="31.21" xlink:href="#未命名的渐变_54"/><radialGradient id="未命名的渐变_54-6" cx="-237.14" cy="6387.07" r="31.21" xlink:href="#未命名的渐变_54"/><radialGradient id="未命名的渐变_54-7" cx="-70.44" cy="6387.07" r="31.21" xlink:href="#未命名的渐变_54"/></defs><title>资源 1</title><g id="图层_2" data-name="图层 2"><g id="图层_1-2" data-name="图层 1"><g id="_编组_" data-name="&lt;编组&gt;"><text class="cls-1" transform="translate(337.41 125.49)">2016.8<tspan x="34.5" y="24.28">-</tspan><tspan x="0" y="51.65">2017.8</tspan></text></g><g id="_编组_2" data-name="&lt;编组&gt;"><text class="cls-1" transform="translate(157.02 317.29)">2017.9</text></g><line id="_路径_" data-name="&lt;路径&gt;" class="cls-2" x1="288.2" x2="288.2" y2="1446.56"/><g id="_编组_3" data-name="&lt;编组&gt;"><path id="_复合路径_" data-name="&lt;复合路径&gt;" class="cls-3" d="M257,142.4a31.21,31.21,0,1,1,31.21,31.21A31.24,31.24,0,0,1,257,142.4Zm59.75,0a28.54,28.54,0,1,0-28.54,28.54A28.57,28.57,0,0,0,316.74,142.4Z"/></g><g id="_编组_4" data-name="&lt;编组&gt;"><path id="_复合路径_2" data-name="&lt;复合路径&gt;" class="cls-4" d="M257,142.4a31.21,31.21,0,1,1,31.21,31.21A31.24,31.24,0,0,1,257,142.4Z"/></g><g id="_编组_5" data-name="&lt;编组&gt;"><path id="_复合路径_3" data-name="&lt;复合路径&gt;" class="cls-5" d="M257,308.37a31.21,31.21,0,1,1,31.21,31.2A31.24,31.24,0,0,1,257,308.37Z"/></g><g id="_编组_6" data-name="&lt;编组&gt;"><path id="_复合路径_4" data-name="&lt;复合路径&gt;" class="cls-6" d="M257,474.33a31.21,31.21,0,1,1,31.21,31.21A31.24,31.24,0,0,1,257,474.33Z"/></g><g id="_编组_7" data-name="&lt;编组&gt;"><path id="_复合路径_5" data-name="&lt;复合路径&gt;" class="cls-7" d="M257,640.3a31.21,31.21,0,1,1,31.21,31.2A31.24,31.24,0,0,1,257,640.3Z"/></g><g id="_编组_8" data-name="&lt;编组&gt;"><path id="_复合路径_6" data-name="&lt;复合路径&gt;" class="cls-8" d="M257,806.26a31.21,31.21,0,1,1,31.21,31.21A31.24,31.24,0,0,1,257,806.26Z"/></g><g id="_编组_9" data-name="&lt;编组&gt;"><path id="_复合路径_7" data-name="&lt;复合路径&gt;" class="cls-9" d="M257,972.23a31.21,31.21,0,1,1,31.21,31.2A31.24,31.24,0,0,1,257,972.23Z"/></g><g id="_编组_10" data-name="&lt;编组&gt;"><path id="_复合路径_8" data-name="&lt;复合路径&gt;" class="cls-10" d="M257,1138.93a31.21,31.21,0,1,1,31.21,31.2A31.24,31.24,0,0,1,257,1138.93Z"/></g><path id="_路径_2" data-name="&lt;路径&gt;" class="cls-11" d="M244.12,142.4A44.08,44.08,0,0,1,288.2,98.33"/><path id="_路径_3" data-name="&lt;路径&gt;" class="cls-11" d="M332.28,308.37a44.09,44.09,0,0,1-44.08,44.08"/><path id="_路径_4" data-name="&lt;路径&gt;" class="cls-11" d="M332.28,640.3a44.09,44.09,0,0,1-44.08,44.08"/><path id="_路径_5" data-name="&lt;路径&gt;" class="cls-11" d="M332.28,972.23a44.09,44.09,0,0,1-44.08,44.08"/><line id="_路径_6" data-name="&lt;路径&gt;" class="cls-11" x1="257.02" y1="142.4" x2="109.78" y2="142.4"/><circle id="_路径_7" data-name="&lt;路径&gt;" class="cls-3" cx="288.2" cy="142.4" r="14.35"/><circle id="_路径_8" data-name="&lt;路径&gt;" class="cls-3" cx="288.2" cy="474.33" r="14.35"/><g id="_编组_11" data-name="&lt;编组&gt;"><path id="_复合路径_9" data-name="&lt;复合路径&gt;" class="cls-3" d="M257,474.33a31.21,31.21,0,1,1,31.21,31.21A31.24,31.24,0,0,1,257,474.33Zm59.75,0a28.54,28.54,0,1,0-28.54,28.54A28.57,28.57,0,0,0,316.74,474.33Z"/></g><path id="_路径_9" data-name="&lt;路径&gt;" class="cls-11" d="M244.12,474.33a44.08,44.08,0,0,1,44.08-44.07"/><line id="_路径_10" data-name="&lt;路径&gt;" class="cls-11" x1="257.02" y1="474.33" x2="109.78" y2="474.33"/><circle id="_路径_11" data-name="&lt;路径&gt;" class="cls-3" cx="288.2" cy="972.23" r="14.35"/><g id="_编组_12" data-name="&lt;编组&gt;"><path id="_复合路径_10" data-name="&lt;复合路径&gt;" class="cls-3" d="M319.41,972.23A31.21,31.21,0,1,1,288.2,941,31.24,31.24,0,0,1,319.41,972.23Zm-59.75,0a28.54,28.54,0,1,0,28.54-28.54A28.57,28.57,0,0,0,259.66,972.23Z"/></g><line id="_路径_12" data-name="&lt;路径&gt;" class="cls-11" x1="319.38" y1="972.23" x2="466.62" y2="972.23"/><circle id="_路径_13" data-name="&lt;路径&gt;" class="cls-3" cx="288.2" cy="806.26" r="14.35"/><g id="_编组_13" data-name="&lt;编组&gt;"><path id="_复合路径_11" data-name="&lt;复合路径&gt;" class="cls-3" d="M257,806.26a31.21,31.21,0,1,1,31.21,31.21A31.24,31.24,0,0,1,257,806.26Zm59.75,0A28.54,28.54,0,1,0,288.2,834.8,28.57,28.57,0,0,0,316.74,806.26Z"/></g><path id="_路径_14" data-name="&lt;路径&gt;" class="cls-11" d="M244.12,806.26a44.08,44.08,0,0,1,44.08-44.07"/><line id="_路径_15" data-name="&lt;路径&gt;" class="cls-11" x1="257.02" y1="806.26" x2="109.78" y2="806.26"/><circle id="_路径_16" data-name="&lt;路径&gt;" class="cls-3" cx="288.2" cy="640.3" r="14.35"/><g id="_编组_14" data-name="&lt;编组&gt;"><path id="_复合路径_12" data-name="&lt;复合路径&gt;" class="cls-3" d="M319.41,640.3a31.21,31.21,0,1,1-31.21-31.21A31.24,31.24,0,0,1,319.41,640.3Zm-59.75,0a28.54,28.54,0,1,0,28.54-28.54A28.57,28.57,0,0,0,259.66,640.3Z"/></g><line id="_路径_17" data-name="&lt;路径&gt;" class="cls-11" x1="319.38" y1="640.3" x2="466.62" y2="640.3"/><circle id="_路径_18" data-name="&lt;路径&gt;" class="cls-3" cx="288.2" cy="1138.19" r="14.35"/><g id="_编组_15" data-name="&lt;编组&gt;"><path id="_复合路径_13" data-name="&lt;复合路径&gt;" class="cls-3" d="M257,1138.19a31.21,31.21,0,1,1,31.21,31.21A31.24,31.24,0,0,1,257,1138.19Zm59.75,0a28.54,28.54,0,1,0-28.54,28.54A28.57,28.57,0,0,0,316.74,1138.19Z"/></g><path id="_路径_19" data-name="&lt;路径&gt;" class="cls-11" d="M244.12,1138.19a44.08,44.08,0,0,1,44.08-44.07"/><circle id="_路径_20" data-name="&lt;路径&gt;" class="cls-3" cx="288.2" cy="308.37" r="14.35"/><g id="_编组_16" data-name="&lt;编组&gt;"><path id="_复合路径_14" data-name="&lt;复合路径&gt;" class="cls-3" d="M319.41,308.37a31.21,31.21,0,1,1-31.21-31.21A31.24,31.24,0,0,1,319.41,308.37Zm-59.75,0a28.54,28.54,0,1,0,28.54-28.54A28.57,28.57,0,0,0,259.66,308.37Z"/></g><line id="_路径_21" data-name="&lt;路径&gt;" class="cls-11" x1="319.38" y1="308.37" x2="466.62" y2="308.37"/><g id="_编组_17" data-name="&lt;编组&gt;"><text class="cls-12" transform="translate(75.73 179.62)">Project<tspan x="-22.39" y="28.4">Prepar</tspan><tspan class="cls-13" x="43.26" y="28.4">a</tspan><tspan x="55.21" y="28.4">tion</tspan></text></g><g id="_编组_18" data-name="&lt;编组&gt;"><text class="cls-12" transform="translate(406.64 345.59)">D<tspan class="cls-14" x="15.8" y="0">R</tspan><tspan x="29.98" y="0">C Project</tspan><tspan x="25.29" y="28.4">Ki</tspan><tspan class="cls-15" x="44.74" y="28.4">c</tspan><tspan class="cls-16" x="56.47" y="28.4">k</tspan><tspan x="66.8" y="28.4">o</tspan><tspan class="cls-17" x="78.97" y="28.4">f</tspan><tspan class="cls-18" x="86.03" y="28.4">f</tspan></text></g><path id="_路径_22" data-name="&lt;路径&gt;" class="cls-3" d="M109.78,147.12a4.72,4.72,0,1,1,4.72-4.72A4.72,4.72,0,0,1,109.78,147.12Z"/><g id="_编组_19" data-name="&lt;编组&gt;"><text class="cls-1" transform="translate(337.41 483.2)">2017.9-10</text></g><g id="_编组_20" data-name="&lt;编组&gt;"><text class="cls-12" transform="translate(25.75 512.35)">D<tspan class="cls-14" x="15.8" y="0">R</tspan><tspan x="29.98" y="0">C Distri</tspan><tspan class="cls-19" x="101.69" y="0">b</tspan><tspan class="cls-20" x="114.84" y="0">uted</tspan><tspan x="-25.75" y="28.4">Pro</tspan><tspan class="cls-13" x="7.08" y="28.4">f</tspan><tspan x="12.94" y="28.4">essional Se</tspan><tspan class="cls-21" x="124.83" y="28.4">r</tspan><tspan x="133.3" y="28.4">vices</tspan><tspan x="1.42" y="56.81">Pl</tspan><tspan class="cls-13" x="19.65" y="56.81">a</tspan><tspan x="31.6" y="56.81">t</tspan><tspan class="cls-22" x="37.68" y="56.81">f</tspan><tspan class="cls-20" x="43.35" y="56.81">o</tspan><tspan class="cls-23" x="55.52" y="56.81">r</tspan><tspan class="cls-20" x="63.59" y="56.81">m Design</tspan></text></g><path id="_路径_23" data-name="&lt;路径&gt;" class="cls-3" d="M109.78,479.05a4.72,4.72,0,1,1,4.72-4.72A4.72,4.72,0,0,1,109.78,479.05Z"/><g id="_编组_21" data-name="&lt;编组&gt;"><text class="cls-1" transform="translate(337.41 815.19)">2018.1-3</text></g><g id="_编组_22" data-name="&lt;编组&gt;"><text class="cls-12" transform="translate(6.03 837.47)">D<tspan class="cls-14" x="15.8" y="0">R</tspan><tspan x="29.98" y="0">C </tspan><tspan class="cls-24" x="51.86" y="0">D</tspan><tspan class="cls-13" x="66.66" y="0">A</tspan><tspan x="81.03" y="0">pp Prototype</tspan><tspan x="11.35" y="28.4">V2.0 D</tspan><tspan class="cls-25" x="77.02" y="28.4">e</tspan><tspan class="cls-26" x="88.73" y="28.4">v</tspan><tspan x="98.86" y="28.4">elopment </tspan></text></g><path id="_路径_24" data-name="&lt;路径&gt;" class="cls-3" d="M109.78,811a4.72,4.72,0,1,1,4.72-4.72A4.72,4.72,0,0,1,109.78,811Z"/><g id="_编组_23" data-name="&lt;编组&gt;"><text class="cls-1" transform="translate(337.41 1147.12)">2018.7-9</text></g><path id="_路径_25" data-name="&lt;路径&gt;" class="cls-3" d="M109.78,1142.91a4.72,4.72,0,1,1,4.72-4.72A4.72,4.72,0,0,1,109.78,1142.91Z"/><path id="_路径_26" data-name="&lt;路径&gt;" class="cls-3" d="M466.62,313.09a4.72,4.72,0,1,1,4.72-4.72A4.72,4.72,0,0,1,466.62,313.09Z"/><g id="_编组_24" data-name="&lt;编组&gt;"><text class="cls-1" transform="translate(106.83 649.22)">2017.10-12</text></g><g id="_编组_25" data-name="&lt;编组&gt;"><text class="cls-12" transform="translate(362.87 681.04)">D<tspan class="cls-14" x="15.8" y="0">R</tspan><tspan x="29.98" y="0">C </tspan><tspan class="cls-24" x="51.86" y="0">D</tspan><tspan class="cls-13" x="66.66" y="0">A</tspan><tspan x="81.03" y="0">pp Prototype</tspan><tspan x="14.39" y="28.4">V1.0 D</tspan><tspan class="cls-27" x="80.06" y="28.4">e</tspan><tspan class="cls-26" x="91.77" y="28.4">v</tspan><tspan x="101.9" y="28.4">elopment</tspan></text></g><path id="_路径_27" data-name="&lt;路径&gt;" class="cls-3" d="M466.62,645a4.72,4.72,0,1,1,4.72-4.72A4.72,4.72,0,0,1,466.62,645Z"/><g id="_编组_26" data-name="&lt;编组&gt;"><text class="cls-1" transform="translate(134.4 981.17)">2018.4-6</text></g><g id="_编组_27" data-name="&lt;编组&gt;"><text class="cls-12" transform="translate(400.49 1010.45)">D<tspan class="cls-14" x="15.8" y="0">R</tspan><tspan x="29.98" y="0">C Pl</tspan><tspan class="cls-13" x="70.09" y="0">a</tspan><tspan x="82.04" y="0">t</tspan><tspan class="cls-22" x="88.12" y="0">f</tspan><tspan class="cls-20" x="93.79" y="0">o</tspan><tspan class="cls-23" x="105.96" y="0">r</tspan><tspan class="cls-20" x="114.03" y="0">m</tspan><tspan x="7.77" y="28.4">System </tspan><tspan class="cls-28" x="85.59" y="28.4">T</tspan><tspan class="cls-20" x="95.3" y="28.4">est</tspan></text></g><path id="_路径_28" data-name="&lt;路径&gt;" class="cls-3" d="M466.62,977a4.72,4.72,0,1,1,4.72-4.72A4.72,4.72,0,0,1,466.62,977Z"/></g></g></svg>